<svg width="1230" height="1019" viewBox="0 0 1230 1019" fill="none" xmlns="http://www.w3.org/2000/svg">
<path fill-rule="evenodd" clip-rule="evenodd" d="M319.432 917.199V743.006H0V608.041L301.219 177.929H487.087V596.833H544.528C544.995 607.419 549.105 632.139 561.808 646.336L519.777 743.006H486.62V795.31C466.227 824.576 404.24 889.926 319.432 917.199ZM331.107 597.3V374.071L188.204 597.3H331.107Z" fill="#E9EEF7"/>
<path fill-rule="evenodd" clip-rule="evenodd" d="M481.483 601.503V183.533H304.021L5.60449 609.442V738.336H324.569V915.331C362.864 901.788 439.266 862.652 481.483 801.381V737.402H522.113L559.94 651.94C552.935 643.534 541.727 629.523 540.326 601.503H481.483ZM183.411 602.437H332.777C334.434 602.437 335.777 601.094 335.777 599.437V366.109C335.777 363.112 331.866 361.967 330.25 364.492L180.885 597.82C179.606 599.817 181.04 602.437 183.411 602.437Z" fill="url(#paint0_linear_2539_3400)"/>
<path d="M342.783 747.209L438.519 848.549C451.969 838.088 472.455 813.679 481.016 802.782V738.336H522.113L559.473 651.94C549.386 643.347 541.572 615.358 538.925 602.437H485.687C480.83 602.063 480.549 598.857 481.016 597.3L460.001 605.239L481.016 519.31V481.016L424.976 622.985V615.98H267.128L273.666 738.336H325.971L411.9 640.731L342.783 747.209Z" fill="url(#paint1_linear_2539_3400)" fill-opacity="0.16"/>
<path d="M53.7047 692.102L45.7656 738.336H192.872L130.761 692.102H53.7047Z" fill="url(#paint2_linear_2539_3400)" fill-opacity="0.15"/>
<path d="M6.07129 610.843V732.731L42.9647 698.64L191.472 610.843L186.335 602.904H179.33L183.533 593.564L145.239 512.772L176.528 366.132L6.07129 610.843Z" fill="url(#paint3_linear_2539_3400)" fill-opacity="0.15"/>
<path d="M134.497 689.767L196.142 603.371H264.792V616.447L134.497 689.767Z" fill="url(#paint4_linear_2539_3400)" fill-opacity="0.15"/>
<path d="M265.726 410.498L242.376 276.934L257.787 254.518L480.082 382.477V422.173L405.361 468.873L337.178 440.853V355.391L290.945 422.173L265.726 410.498Z" fill="url(#paint5_linear_2539_3400)" fill-opacity="0.15"/>
<path d="M265.26 615.98V602.904H335.778V440.386L402.092 467.939L425.91 615.98H265.26Z" fill="url(#paint6_linear_2539_3400)" fill-opacity="0.1"/>
<path d="M263.858 468.407L183.533 594.031L145.238 515.574L266.66 409.564L263.858 468.407Z" fill="url(#paint7_linear_2539_3400)" fill-opacity="0.15"/>
<path d="M538.925 135.899V502.498H588.427C614.953 483.071 667.04 461.401 689.768 452.995V0H544.996L436.184 135.899H538.925Z" fill="#E9EEF7"/>
<path d="M684.63 5.13702V450.193C660.346 456.545 608.82 483.506 586.092 496.894H543.595V131.229H447.858L547.798 5.13702H684.63Z" fill="url(#paint8_linear_2539_3400)"/>
<path d="M639.332 146.173L543.596 186.802V130.761H474.012L477.748 121.888L572.083 73.3198L639.332 146.173Z" fill="url(#paint9_linear_2539_3400)" fill-opacity="0.15"/>
<path d="M657.078 21.4823L572.55 73.3199L639.332 146.64L657.078 21.4823Z" fill="url(#paint10_linear_2539_3400)" fill-opacity="0.1"/>
<path d="M685.098 105.076V322.234L633.728 293.746L639.332 148.508L657.545 21.0152L685.098 105.076Z" fill="url(#paint11_linear_2539_3400)" fill-opacity="0.15"/>
<path d="M544.529 296.082V430.112L598.235 426.376L629.524 472.61L638.397 468.407L625.321 423.107L633.26 296.082H544.529Z" fill="url(#paint12_linear_2539_3400)" fill-opacity="0.2"/>
<path d="M1229.31 586.91C1229.31 658.929 1085.81 717.312 908.805 717.312C731.795 717.312 588.301 658.929 588.301 586.91C588.301 514.892 731.795 456.509 908.805 456.509C1085.81 456.509 1229.31 514.892 1229.31 586.91Z" fill="#D9D9D9"/>
<path d="M1223.02 580.626C1223.02 652.645 1080.23 711.027 904.091 711.027C727.949 711.027 585.158 652.645 585.158 580.626C585.158 508.608 727.949 450.225 904.091 450.225C1080.23 450.225 1223.02 508.608 1223.02 580.626Z" fill="#283A82"/>
<path d="M864.814 608.905C818.406 684.319 751.695 715.74 718.702 720.453C856.959 747.162 918.232 608.905 971.649 519.353C1003.9 465.284 1072.2 438.179 1105.19 432.942C974.791 421.945 927.658 506.784 864.814 608.905Z" fill="#EDEEEF"/>
<path d="M886.807 618.333C820.821 707.69 755.359 719.93 723.413 720.454C834.961 748.734 915.087 630.901 962.22 536.635C992.286 476.504 1069.58 441.322 1105.19 432.943C965.362 445.512 948.94 534.194 886.807 618.333Z" fill="url(#paint13_linear_2539_3400)"/>
<path d="M988.934 516.211V557.06C1016.17 533.781 1073.77 511.498 1094.2 544.491C1123.38 591.624 1070.63 643.47 1048.64 640.328C1031.04 637.814 1032.93 620.427 1036.07 612.048H1070.63C1081.94 595.709 1071.16 582.197 1064.35 577.484H988.934C970.081 616.761 970.677 697.901 1070.63 673.321C1166.47 649.754 1172.75 542.92 1114.62 502.072C1068.12 469.393 1011.45 497.882 988.934 516.211Z" fill="#EDEEEF"/>
<path d="M724.983 550.775C753.275 488.801 816.63 526.161 841.244 550.775L849.1 503.642C803.538 461.223 739.125 469.078 696.704 513.069C651.199 560.257 649.571 667.036 753.263 676.463C836.217 684.004 843.34 608.382 836.532 569.628C818.726 569.104 778.715 568.371 761.119 569.628C743.523 570.885 742.266 596.337 743.837 608.906H779.971C775.258 667.036 691.991 623.046 724.983 550.775Z" fill="#EDEEEF"/>
<path opacity="0.6" d="M849.102 503.642L828.678 514.64L836.533 546.062L841.247 550.775L849.102 503.642Z" fill="#767676" fill-opacity="0.44"/>
<path d="M828.679 514.64L839.676 549.204C770.548 492.645 737.031 523.543 728.128 546.062C718.073 548.576 705.086 560.725 699.849 566.486C718.702 478.505 793.591 495.263 828.679 514.64Z" fill="url(#paint14_linear_2539_3400)"/>
<path d="M724.99 651.326C657.119 616.133 690.427 550.775 713.994 522.496C702.683 526.266 698.806 516.735 698.281 511.498C648.004 564.915 662.146 643.47 709.279 663.894C761.123 690.603 817.688 676.463 831.825 632.472C829.311 636.243 855.389 560.202 817.688 624.617C806.685 651.326 767.412 667.037 724.99 651.326Z" fill="url(#paint15_linear_2539_3400)"/>
<path d="M762.691 588.482L743.838 608.906H779.973C778.402 621.475 775.784 623.57 773.689 627.759C783.744 629.016 787.829 635.615 787.829 638.757C805.832 614.002 798.316 597.474 790.532 590.526C788.876 589.047 786.651 588.482 784.431 588.482H762.691Z" fill="url(#paint16_linear_2539_3400)"/>
<path d="M1003.06 597.908L988.925 580.626C977.933 597.908 962.221 674.892 1036.06 678.034C1146.04 671.75 1157.04 596.337 1149.18 553.917L1131.89 558.63C1122.47 681.176 1021.92 660.752 1006.21 646.612C993.638 635.3 998.875 609.429 1003.06 597.908Z" fill="url(#paint17_linear_2539_3400)"/>
<path d="M1007.78 525.637L988.931 557.06C1005.69 544.491 1050.2 520.924 1075.34 530.351C1116.19 545.669 1103.62 592.232 1087.91 615.19L1106.76 621.475C1122.47 601.05 1136.61 544.491 1095.77 517.782C1063.09 496.415 1023.49 514.116 1007.78 525.637Z" fill="url(#paint18_linear_2539_3400)"/>
<path d="M1056.49 594.766L1070.63 612.048H1036.85C1032.45 619.589 1034.49 628.806 1036.06 632.472H1015.64C1007.79 618.332 1015.64 597.908 1023.5 596.337C1029.78 595.08 1048.11 594.766 1056.49 594.766Z" fill="url(#paint19_linear_2539_3400)"/>
<path opacity="0.6" d="M1007.78 525.638L988.931 557.06V516.211L1007.78 525.638Z" fill="#B9B9BA"/>
<path d="M762.694 569.628V588.482L743.841 608.906C740.696 579.055 751.695 569.628 762.694 569.628Z" fill="url(#paint20_linear_2539_3400)" fill-opacity="0.68"/>
<path d="M1064.34 577.484C1081.63 590.053 1075.34 605.764 1070.63 612.048L1056.49 594.766L1064.34 577.484Z" fill="url(#paint21_linear_2539_3400)"/>
<path fill-rule="evenodd" clip-rule="evenodd" d="M906.83 837.323V779.193H910.779V837.323H906.83Z" fill="#283A82"/>
<path d="M747.906 818.419L758.953 817.345C759.618 821.053 760.96 823.776 762.981 825.515C765.026 827.254 767.775 828.123 771.227 828.123C774.884 828.123 777.633 827.356 779.474 825.822C781.341 824.262 782.274 822.446 782.274 820.375C782.274 819.045 781.878 817.92 781.085 817C780.318 816.054 778.963 815.235 777.019 814.545C775.689 814.085 772.659 813.266 767.929 812.09C761.843 810.581 757.572 808.727 755.117 806.528C751.665 803.434 749.939 799.662 749.939 795.213C749.939 792.349 750.745 789.677 752.356 787.196C753.992 784.69 756.332 782.785 759.375 781.481C762.444 780.177 766.139 779.525 770.46 779.525C777.518 779.525 782.824 781.072 786.378 784.166C789.958 787.26 791.838 791.39 792.017 796.555L780.663 797.054C780.177 794.165 779.129 792.093 777.518 790.84C775.932 789.562 773.541 788.922 770.345 788.922C767.046 788.922 764.464 789.6 762.597 790.955C761.395 791.825 760.794 792.988 760.794 794.446C760.794 795.776 761.357 796.913 762.482 797.86C763.914 799.061 767.392 800.314 772.915 801.619C778.438 802.923 782.517 804.278 785.151 805.684C787.81 807.065 789.881 808.97 791.365 811.4C792.873 813.803 793.628 816.782 793.628 820.337C793.628 823.559 792.733 826.576 790.943 829.389C789.153 832.202 786.621 834.299 783.348 835.68C780.075 837.035 775.996 837.712 771.112 837.712C764.003 837.712 758.544 836.076 754.734 832.803C750.924 829.504 748.648 824.709 747.906 818.419Z" fill="#283A82"/>
<path d="M802.833 836.715V780.484H814.187V836.715H802.833Z" fill="#283A82"/>
<path d="M827.88 836.715V780.484H839.234V836.715H827.88Z" fill="#283A82"/>
<path d="M850.165 836.715V780.484H888.714V789.996H861.519V803.306H884.993V812.819H861.519V836.715H850.165Z" fill="#283A82"/>
<path d="M954.262 796.618L957.536 797.445C956.85 800.134 955.612 802.188 953.823 803.605C952.046 805.012 949.868 805.715 947.292 805.715C944.625 805.715 942.454 805.175 940.777 804.095C939.112 803.004 937.841 801.428 936.963 799.369C936.097 797.31 935.664 795.099 935.664 792.737C935.664 790.16 936.153 787.915 937.132 786.003C938.122 784.079 939.523 782.622 941.334 781.632C943.157 780.63 945.16 780.13 947.342 780.13C949.818 780.13 951.899 780.76 953.587 782.02C955.275 783.28 956.45 785.052 957.114 787.336L953.891 788.095C953.317 786.295 952.484 784.984 951.393 784.163C950.302 783.342 948.929 782.931 947.275 782.931C945.373 782.931 943.781 783.387 942.499 784.298C941.227 785.21 940.333 786.436 939.815 787.977C939.298 789.508 939.039 791.088 939.039 792.72C939.039 794.824 939.343 796.663 939.95 798.239C940.569 799.803 941.525 800.973 942.819 801.749C944.113 802.525 945.514 802.914 947.022 802.914C948.856 802.914 950.408 802.385 951.68 801.327C952.951 800.269 953.812 798.7 954.262 796.618Z" fill="#283A82"/>
<path d="M960.068 796.331C960.068 793.012 960.99 790.554 962.836 788.956C964.377 787.629 966.256 786.965 968.473 786.965C970.937 786.965 972.951 787.775 974.514 789.395C976.078 791.004 976.86 793.232 976.86 796.078C976.86 798.385 976.512 800.202 975.814 801.53C975.128 802.846 974.121 803.87 972.793 804.601C971.477 805.333 970.036 805.698 968.473 805.698C965.963 805.698 963.933 804.894 962.38 803.285C960.838 801.676 960.068 799.358 960.068 796.331ZM963.19 796.331C963.19 798.627 963.691 800.348 964.692 801.496C965.693 802.632 966.954 803.2 968.473 803.2C969.98 803.2 971.235 802.627 972.236 801.479C973.237 800.331 973.738 798.582 973.738 796.23C973.738 794.014 973.232 792.337 972.219 791.201C971.218 790.053 969.969 789.479 968.473 789.479C966.954 789.479 965.693 790.048 964.692 791.184C963.691 792.32 963.19 794.036 963.19 796.331Z" fill="#283A82"/>
<path d="M980.405 805.293V787.37H983.139V790.087C983.836 788.816 984.478 787.977 985.063 787.572C985.659 787.167 986.312 786.965 987.02 786.965C988.044 786.965 989.085 787.291 990.143 787.944L989.096 790.762C988.354 790.323 987.611 790.104 986.868 790.104C986.205 790.104 985.608 790.306 985.079 790.711C984.551 791.105 984.174 791.657 983.949 792.365C983.611 793.446 983.442 794.627 983.442 795.91V805.293H980.405Z" fill="#283A82"/>
<path d="M1004.22 799.521L1007.36 799.909C1006.86 801.743 1005.95 803.167 1004.61 804.179C1003.27 805.192 1001.56 805.698 999.476 805.698C996.854 805.698 994.773 804.894 993.231 803.285C991.701 801.665 990.936 799.397 990.936 796.483C990.936 793.468 991.712 791.128 993.265 789.463C994.818 787.797 996.832 786.965 999.307 786.965C1001.7 786.965 1003.66 787.78 1005.18 789.412C1006.7 791.043 1007.46 793.339 1007.46 796.298C1007.46 796.478 1007.45 796.748 1007.44 797.108H994.075C994.187 799.077 994.744 800.584 995.746 801.631C996.747 802.677 997.996 803.2 999.492 803.2C1000.61 803.2 1001.56 802.908 1002.34 802.323C1003.13 801.738 1003.76 800.804 1004.22 799.521ZM994.244 794.61H1004.25C1004.12 793.102 1003.73 791.972 1003.1 791.218C1002.14 790.048 1000.88 789.463 999.341 789.463C997.945 789.463 996.77 789.929 995.813 790.863C994.868 791.797 994.345 793.046 994.244 794.61Z" fill="#283A82"/>
<path d="M936.474 808.831H946.364C948.321 808.831 949.778 808.916 950.735 809.084C951.702 809.242 952.563 809.579 953.317 810.097C954.082 810.615 954.718 811.307 955.224 812.173C955.73 813.028 955.983 813.99 955.983 815.059C955.983 816.218 955.668 817.281 955.038 818.249C954.42 819.216 953.576 819.942 952.507 820.426C954.014 820.865 955.173 821.613 955.983 822.67C956.794 823.728 957.199 824.971 957.199 826.4C957.199 827.525 956.934 828.622 956.405 829.691C955.888 830.749 955.173 831.598 954.262 832.24C953.362 832.87 952.248 833.258 950.92 833.404C950.088 833.494 948.079 833.55 944.895 833.573H936.474V808.831ZM941.469 812.949V818.671H944.743C946.69 818.671 947.899 818.642 948.372 818.586C949.227 818.485 949.896 818.192 950.38 817.709C950.875 817.213 951.123 816.567 951.123 815.768C951.123 815.003 950.909 814.384 950.482 813.911C950.065 813.427 949.441 813.135 948.608 813.034C948.113 812.977 946.69 812.949 944.338 812.949H941.469ZM941.469 822.789V829.404H946.094C947.894 829.404 949.036 829.354 949.52 829.252C950.262 829.117 950.864 828.791 951.325 828.274C951.798 827.745 952.034 827.042 952.034 826.164C952.034 825.421 951.854 824.791 951.494 824.274C951.134 823.756 950.611 823.379 949.925 823.143C949.25 822.907 947.776 822.789 945.503 822.789H941.469Z" fill="#283A82"/>
<path d="M964.945 821.118L960.642 820.341C961.125 818.609 961.958 817.326 963.139 816.493C964.321 815.661 966.076 815.245 968.405 815.245C970.52 815.245 972.095 815.498 973.131 816.004C974.166 816.499 974.891 817.135 975.308 817.911C975.735 818.676 975.949 820.088 975.949 822.147L975.898 827.683C975.898 829.258 975.972 830.423 976.118 831.176C976.275 831.919 976.562 832.718 976.979 833.573H972.287C972.163 833.258 972.011 832.791 971.831 832.172C971.752 831.891 971.696 831.705 971.662 831.615C970.852 832.403 969.986 832.994 969.063 833.387C968.141 833.781 967.156 833.978 966.11 833.978C964.264 833.978 962.807 833.477 961.739 832.476C960.681 831.475 960.152 830.209 960.152 828.679C960.152 827.666 960.394 826.766 960.878 825.978C961.362 825.179 962.037 824.572 962.903 824.156C963.781 823.728 965.041 823.357 966.684 823.042C968.9 822.625 970.436 822.237 971.291 821.877V821.405C971.291 820.493 971.066 819.846 970.616 819.464C970.166 819.07 969.316 818.873 968.067 818.873C967.224 818.873 966.565 819.042 966.093 819.379C965.62 819.706 965.238 820.285 964.945 821.118ZM971.291 824.966C970.683 825.168 969.721 825.41 968.405 825.691C967.089 825.973 966.228 826.248 965.823 826.518C965.204 826.957 964.895 827.514 964.895 828.189C964.895 828.853 965.142 829.427 965.637 829.911C966.132 830.394 966.762 830.636 967.527 830.636C968.382 830.636 969.198 830.355 969.975 829.793C970.548 829.365 970.925 828.842 971.105 828.223C971.229 827.818 971.291 827.047 971.291 825.911V824.966Z" fill="#283A82"/>
<path d="M996.944 833.573H992.202V824.426C992.202 822.49 992.1 821.241 991.898 820.679C991.695 820.105 991.363 819.661 990.902 819.346C990.452 819.031 989.906 818.873 989.265 818.873C988.444 818.873 987.707 819.098 987.054 819.548C986.402 819.998 985.951 820.595 985.704 821.337C985.468 822.08 985.35 823.452 985.35 825.455V833.573H980.607V815.65H985.012V818.282C986.576 816.257 988.545 815.245 990.919 815.245C991.965 815.245 992.922 815.436 993.788 815.818C994.654 816.19 995.307 816.668 995.746 817.253C996.196 817.838 996.505 818.502 996.674 819.244C996.854 819.987 996.944 821.05 996.944 822.434V833.573Z" fill="#283A82"/>
<path d="M1017.4 820.949L1012.72 821.793C1012.57 820.859 1012.21 820.156 1011.64 819.683C1011.09 819.211 1010.37 818.974 1009.48 818.974C1008.3 818.974 1007.36 819.385 1006.65 820.206C1005.95 821.016 1005.6 822.378 1005.6 824.291C1005.6 826.417 1005.96 827.919 1006.67 828.797C1007.39 829.674 1008.35 830.113 1009.55 830.113C1010.45 830.113 1011.19 829.86 1011.76 829.354C1012.34 828.836 1012.74 827.953 1012.98 826.704L1017.64 827.497C1017.15 829.635 1016.22 831.25 1014.85 832.341C1013.48 833.432 1011.64 833.978 1009.33 833.978C1006.71 833.978 1004.62 833.151 1003.05 831.497C1001.5 829.843 1000.72 827.553 1000.72 824.628C1000.72 821.669 1001.51 819.368 1003.07 817.725C1004.63 816.071 1006.75 815.245 1009.42 815.245C1011.6 815.245 1013.33 815.717 1014.61 816.662C1015.91 817.596 1016.84 819.025 1017.4 820.949Z" fill="#283A82"/>
<path d="M1024.55 821.118L1020.25 820.341C1020.74 818.609 1021.57 817.326 1022.75 816.493C1023.93 815.661 1025.69 815.245 1028.01 815.245C1030.13 815.245 1031.71 815.498 1032.74 816.004C1033.78 816.499 1034.5 817.135 1034.92 817.911C1035.34 818.676 1035.56 820.088 1035.56 822.147L1035.51 827.683C1035.51 829.258 1035.58 830.423 1035.73 831.176C1035.89 831.919 1036.17 832.718 1036.59 833.573H1031.9C1031.77 833.258 1031.62 832.791 1031.44 832.172C1031.36 831.891 1031.31 831.705 1031.27 831.615C1030.46 832.403 1029.6 832.994 1028.67 833.387C1027.75 833.781 1026.77 833.978 1025.72 833.978C1023.87 833.978 1022.42 833.477 1021.35 832.476C1020.29 831.475 1019.76 830.209 1019.76 828.679C1019.76 827.666 1020 826.766 1020.49 825.978C1020.97 825.179 1021.65 824.572 1022.51 824.156C1023.39 823.728 1024.65 823.357 1026.29 823.042C1028.51 822.625 1030.05 822.237 1030.9 821.877V821.405C1030.9 820.493 1030.68 819.846 1030.23 819.464C1029.78 819.07 1028.93 818.873 1027.68 818.873C1026.83 818.873 1026.18 819.042 1025.7 819.379C1025.23 819.706 1024.85 820.285 1024.55 821.118ZM1030.9 824.966C1030.29 825.168 1029.33 825.41 1028.01 825.691C1026.7 825.973 1025.84 826.248 1025.43 826.518C1024.81 826.957 1024.5 827.514 1024.5 828.189C1024.5 828.853 1024.75 829.427 1025.25 829.911C1025.74 830.394 1026.37 830.636 1027.14 830.636C1027.99 830.636 1028.81 830.355 1029.58 829.793C1030.16 829.365 1030.53 828.842 1030.71 828.223C1030.84 827.818 1030.9 827.047 1030.9 825.911V824.966Z" fill="#283A82"/>
<path d="M1044.79 833.573H1040.05V815.65H1044.45V818.198C1045.21 816.994 1045.88 816.201 1046.48 815.818C1047.09 815.436 1047.77 815.245 1048.54 815.245C1049.62 815.245 1050.66 815.543 1051.66 816.139L1050.19 820.274C1049.39 819.756 1048.65 819.498 1047.96 819.498C1047.3 819.498 1046.74 819.683 1046.28 820.054C1045.81 820.415 1045.45 821.073 1045.18 822.029C1044.92 822.985 1044.79 824.988 1044.79 828.037V833.573Z" fill="#283A82"/>
<path d="M1053.72 813.219V808.831H1058.46V813.219H1053.72ZM1053.72 833.573V815.65H1058.46V833.573H1053.72Z" fill="#283A82"/>
<path d="M1062.24 824.358C1062.24 822.783 1062.63 821.258 1063.41 819.784C1064.18 818.311 1065.28 817.185 1066.7 816.409C1068.13 815.633 1069.72 815.245 1071.47 815.245C1074.18 815.245 1076.41 816.128 1078.14 817.894C1079.87 819.649 1080.74 821.872 1080.74 824.561C1080.74 827.272 1079.86 829.522 1078.11 831.311C1076.36 833.089 1074.16 833.978 1071.51 833.978C1069.86 833.978 1068.29 833.607 1066.8 832.864C1065.31 832.122 1064.18 831.036 1063.41 829.607C1062.63 828.167 1062.24 826.417 1062.24 824.358ZM1067.1 824.611C1067.1 826.389 1067.52 827.75 1068.37 828.696C1069.21 829.641 1070.25 830.113 1071.49 830.113C1072.73 830.113 1073.76 829.641 1074.6 828.696C1075.44 827.75 1075.86 826.378 1075.86 824.578C1075.86 822.822 1075.44 821.472 1074.6 820.527C1073.76 819.582 1072.73 819.109 1071.49 819.109C1070.25 819.109 1069.21 819.582 1068.37 820.527C1067.52 821.472 1067.1 822.834 1067.1 824.611Z" fill="#283A82"/>
<path d="M768.326 871.279L764.337 858.244H766.62L769.468 868.567C769.5 868.428 769.725 867.532 770.143 865.879L772.217 858.244H774.488L776.439 865.805L777.09 868.297L777.839 865.78L780.073 858.244H782.221L778.146 871.279H775.85L773.776 863.473L773.273 861.251L770.634 871.279H768.326Z" fill="#283A82"/>
<path d="M786.492 871.279L782.503 858.244H784.786L787.633 868.567C787.666 868.428 787.891 867.532 788.309 865.879L790.383 858.244H792.654L794.605 865.805L795.256 868.297L796.005 865.78L798.238 858.244H800.386L796.311 871.279H794.016L791.942 863.473L791.438 861.251L788.8 871.279H786.492Z" fill="#283A82"/>
<path d="M804.658 871.279L800.669 858.244H802.952L805.799 868.567C805.832 868.428 806.057 867.532 806.474 865.879L808.549 858.244H810.819L812.771 865.805L813.422 868.297L814.17 865.78L816.404 858.244H818.552L814.477 871.279H812.182L810.108 863.473L809.604 861.251L806.965 871.279H804.658Z" fill="#283A82"/>
<path d="M819.645 871.279V868.763H822.161V871.279H819.645Z" fill="#283A82"/>
<path d="M825.131 867.388L827.316 867.045C827.439 867.92 827.778 868.591 828.335 869.058C828.899 869.524 829.685 869.757 830.691 869.757C831.706 869.757 832.459 869.553 832.95 869.144C833.441 868.726 833.686 868.239 833.686 867.683C833.686 867.184 833.469 866.791 833.036 866.505C832.733 866.308 831.98 866.059 830.777 865.756C829.157 865.347 828.032 864.995 827.402 864.7C826.78 864.398 826.305 863.984 825.978 863.461C825.659 862.929 825.499 862.344 825.499 861.705C825.499 861.124 825.63 860.589 825.892 860.098C826.162 859.598 826.526 859.185 826.985 858.858C827.328 858.604 827.795 858.391 828.384 858.22C828.981 858.04 829.619 857.95 830.299 857.95C831.321 857.95 832.218 858.097 832.987 858.391C833.764 858.686 834.337 859.087 834.705 859.594C835.073 860.093 835.327 860.764 835.466 861.607L833.306 861.902C833.208 861.231 832.921 860.707 832.447 860.331C831.98 859.954 831.317 859.766 830.458 859.766C829.444 859.766 828.719 859.934 828.286 860.269C827.852 860.605 827.635 860.998 827.635 861.448C827.635 861.734 827.725 861.992 827.905 862.221C828.085 862.458 828.368 862.655 828.752 862.81C828.973 862.892 829.624 863.08 830.704 863.375C832.267 863.792 833.355 864.136 833.969 864.406C834.591 864.668 835.077 865.052 835.429 865.56C835.781 866.067 835.957 866.697 835.957 867.45C835.957 868.186 835.74 868.882 835.307 869.536C834.881 870.183 834.263 870.686 833.453 871.046C832.643 871.398 831.727 871.574 830.704 871.574C829.01 871.574 827.717 871.222 826.825 870.518C825.941 869.815 825.377 868.771 825.131 867.388Z" fill="#283A82"/>
<path d="M838.596 855.826V853.285H840.805V855.826H838.596ZM838.596 871.279V858.244H840.805V871.279H838.596Z" fill="#283A82"/>
<path d="M843.297 867.388L845.482 867.045C845.605 867.92 845.944 868.591 846.501 869.058C847.065 869.524 847.851 869.757 848.857 869.757C849.872 869.757 850.625 869.553 851.116 869.144C851.607 868.726 851.852 868.239 851.852 867.683C851.852 867.184 851.635 866.791 851.202 866.505C850.899 866.308 850.146 866.059 848.943 865.756C847.323 865.347 846.198 864.995 845.568 864.7C844.946 864.398 844.471 863.984 844.144 863.461C843.825 862.929 843.665 862.344 843.665 861.705C843.665 861.124 843.796 860.589 844.058 860.098C844.328 859.598 844.692 859.185 845.15 858.858C845.494 858.604 845.961 858.391 846.55 858.22C847.147 858.04 847.785 857.95 848.464 857.95C849.487 857.95 850.383 858.097 851.153 858.391C851.93 858.686 852.503 859.087 852.871 859.594C853.239 860.093 853.493 860.764 853.632 861.607L851.472 861.902C851.373 861.231 851.087 860.707 850.612 860.331C850.146 859.954 849.483 859.766 848.624 859.766C847.609 859.766 846.885 859.934 846.452 860.269C846.018 860.605 845.801 860.998 845.801 861.448C845.801 861.734 845.891 861.992 846.071 862.221C846.251 862.458 846.533 862.655 846.918 862.81C847.139 862.892 847.789 863.08 848.87 863.375C850.432 863.792 851.521 864.136 852.134 864.406C852.756 864.668 853.243 865.052 853.595 865.56C853.947 866.067 854.123 866.697 854.123 867.45C854.123 868.186 853.906 868.882 853.472 869.536C853.047 870.183 852.429 870.686 851.619 871.046C850.809 871.398 849.892 871.574 848.87 871.574C847.176 871.574 845.883 871.222 844.991 870.518C844.107 869.815 843.543 868.771 843.297 867.388Z" fill="#283A82"/>
<path d="M861.573 869.303L861.892 871.255C861.271 871.386 860.714 871.451 860.223 871.451C859.421 871.451 858.799 871.324 858.357 871.071C857.916 870.817 857.605 870.486 857.425 870.076C857.245 869.659 857.155 868.788 857.155 867.462V859.963H855.534V858.244H857.155V855.016L859.352 853.69V858.244H861.573V859.963H859.352V867.585C859.352 868.215 859.389 868.62 859.462 868.8C859.544 868.98 859.671 869.123 859.843 869.23C860.023 869.336 860.276 869.389 860.604 869.389C860.849 869.389 861.172 869.36 861.573 869.303Z" fill="#283A82"/>
<path d="M872.669 867.082L874.952 867.364C874.592 868.698 873.925 869.733 872.952 870.469C871.978 871.206 870.734 871.574 869.22 871.574C867.314 871.574 865.8 870.989 864.679 869.819C863.566 868.64 863.009 866.992 863.009 864.872C863.009 862.679 863.574 860.977 864.703 859.766C865.832 858.555 867.297 857.95 869.097 857.95C870.84 857.95 872.264 858.543 873.369 859.729C874.474 860.916 875.026 862.585 875.026 864.737C875.026 864.868 875.022 865.064 875.014 865.326H865.292C865.374 866.758 865.779 867.855 866.508 868.616C867.236 869.377 868.144 869.757 869.232 869.757C870.043 869.757 870.734 869.545 871.307 869.119C871.88 868.694 872.334 868.014 872.669 867.082ZM865.415 863.51H872.694C872.596 862.413 872.317 861.591 871.859 861.043C871.155 860.192 870.243 859.766 869.122 859.766C868.107 859.766 867.252 860.106 866.557 860.785C865.869 861.464 865.489 862.372 865.415 863.51Z" fill="#283A82"/>
<path d="M877.738 871.279V858.244H879.715V860.073C880.124 859.435 880.668 858.923 881.347 858.539C882.026 858.146 882.8 857.95 883.667 857.95C884.632 857.95 885.422 858.15 886.036 858.551C886.658 858.952 887.095 859.512 887.349 860.233C888.38 858.711 889.722 857.95 891.375 857.95C892.668 857.95 893.662 858.31 894.358 859.03C895.053 859.742 895.401 860.842 895.401 862.331V871.279H893.204V863.068C893.204 862.184 893.13 861.55 892.983 861.165C892.844 860.773 892.586 860.458 892.21 860.22C891.833 859.983 891.391 859.864 890.884 859.864C889.968 859.864 889.207 860.171 888.601 860.785C887.996 861.39 887.693 862.364 887.693 863.706V871.279H885.483V862.81C885.483 861.828 885.303 861.092 884.943 860.601C884.583 860.11 883.994 859.864 883.176 859.864C882.554 859.864 881.977 860.028 881.445 860.355C880.922 860.683 880.541 861.161 880.304 861.791C880.066 862.421 879.948 863.33 879.948 864.516V871.279H877.738Z" fill="#283A82"/>
<path d="M907.184 869.671C906.366 870.367 905.576 870.858 904.815 871.144C904.063 871.431 903.252 871.574 902.385 871.574C900.953 871.574 899.853 871.226 899.083 870.531C898.314 869.827 897.93 868.931 897.93 867.843C897.93 867.204 898.073 866.623 898.359 866.1C898.654 865.568 899.034 865.142 899.501 864.823C899.975 864.504 900.507 864.263 901.096 864.099C901.53 863.984 902.185 863.874 903.06 863.768C904.844 863.555 906.157 863.301 907 863.007C907.008 862.704 907.012 862.511 907.012 862.43C907.012 861.53 906.804 860.895 906.386 860.527C905.822 860.028 904.983 859.778 903.87 859.778C902.831 859.778 902.062 859.963 901.563 860.331C901.072 860.691 900.708 861.333 900.47 862.258L898.31 861.963C898.506 861.039 898.83 860.294 899.28 859.729C899.73 859.157 900.38 858.719 901.231 858.416C902.082 858.105 903.068 857.95 904.189 857.95C905.302 857.95 906.206 858.08 906.902 858.342C907.598 858.604 908.109 858.936 908.436 859.337C908.764 859.729 908.993 860.228 909.124 860.834C909.197 861.21 909.234 861.89 909.234 862.872V865.817C909.234 867.871 909.279 869.172 909.369 869.721C909.467 870.261 909.656 870.78 909.934 871.279H907.626C907.397 870.821 907.25 870.285 907.184 869.671ZM907 864.737C906.198 865.064 904.995 865.343 903.392 865.572C902.483 865.703 901.841 865.85 901.465 866.014C901.088 866.177 900.798 866.419 900.593 866.738C900.388 867.049 900.286 867.397 900.286 867.781C900.286 868.37 900.507 868.861 900.949 869.254C901.399 869.647 902.054 869.843 902.913 869.843C903.764 869.843 904.521 869.659 905.184 869.291C905.846 868.915 906.333 868.403 906.644 867.757C906.882 867.257 907 866.521 907 865.547V864.737Z" fill="#283A82"/>
<path d="M911.787 867.388L913.972 867.045C914.095 867.92 914.434 868.591 914.991 869.058C915.555 869.524 916.341 869.757 917.347 869.757C918.362 869.757 919.115 869.553 919.606 869.144C920.097 868.726 920.342 868.239 920.342 867.683C920.342 867.184 920.125 866.791 919.692 866.505C919.389 866.308 918.636 866.059 917.433 865.756C915.813 865.347 914.688 864.995 914.058 864.7C913.436 864.398 912.961 863.984 912.634 863.461C912.315 862.929 912.155 862.344 912.155 861.705C912.155 861.124 912.286 860.589 912.548 860.098C912.818 859.598 913.182 859.185 913.641 858.858C913.984 858.604 914.451 858.391 915.04 858.22C915.637 858.04 916.275 857.95 916.955 857.95C917.977 857.95 918.873 858.097 919.643 858.391C920.42 858.686 920.993 859.087 921.361 859.594C921.729 860.093 921.983 860.764 922.122 861.607L919.962 861.902C919.864 861.231 919.577 860.707 919.103 860.331C918.636 859.954 917.973 859.766 917.114 859.766C916.099 859.766 915.375 859.934 914.942 860.269C914.508 860.605 914.291 860.998 914.291 861.448C914.291 861.734 914.381 861.992 914.561 862.221C914.741 862.458 915.023 862.655 915.408 862.81C915.629 862.892 916.279 863.08 917.36 863.375C918.923 863.792 920.011 864.136 920.625 864.406C921.246 864.668 921.733 865.052 922.085 865.56C922.437 866.067 922.613 866.697 922.613 867.45C922.613 868.186 922.396 868.882 921.962 869.536C921.537 870.183 920.919 870.686 920.109 871.046C919.299 871.398 918.382 871.574 917.36 871.574C915.666 871.574 914.373 871.222 913.481 870.518C912.597 869.815 912.033 868.771 911.787 867.388Z" fill="#283A82"/>
<path d="M924.835 872.359L926.983 872.679C927.073 873.341 927.322 873.824 927.731 874.127C928.28 874.536 929.028 874.741 929.978 874.741C931 874.741 931.79 874.536 932.346 874.127C932.903 873.718 933.279 873.145 933.476 872.409C933.59 871.959 933.643 871.013 933.635 869.573C932.67 870.711 931.467 871.279 930.027 871.279C928.235 871.279 926.848 870.633 925.866 869.34C924.884 868.047 924.393 866.496 924.393 864.688C924.393 863.444 924.618 862.299 925.068 861.251C925.518 860.196 926.168 859.382 927.019 858.809C927.879 858.236 928.885 857.95 930.039 857.95C931.577 857.95 932.846 858.571 933.844 859.815V858.244H935.881V869.512C935.881 871.541 935.673 872.977 935.255 873.82C934.846 874.671 934.192 875.342 933.292 875.833C932.4 876.324 931.299 876.57 929.99 876.57C928.435 876.57 927.179 876.218 926.222 875.514C925.264 874.818 924.802 873.767 924.835 872.359ZM926.663 864.529C926.663 866.239 927.003 867.487 927.682 868.272C928.361 869.058 929.212 869.45 930.235 869.45C931.25 869.45 932.101 869.062 932.788 868.284C933.476 867.499 933.819 866.271 933.819 864.602C933.819 863.007 933.463 861.804 932.751 860.994C932.048 860.183 931.197 859.778 930.198 859.778C929.217 859.778 928.382 860.179 927.695 860.981C927.007 861.775 926.663 862.957 926.663 864.529Z" fill="#283A82"/>
<path d="M939.134 876.299L938.889 874.225C939.371 874.356 939.793 874.422 940.153 874.422C940.644 874.422 941.037 874.34 941.331 874.176C941.626 874.012 941.867 873.783 942.055 873.489C942.194 873.268 942.419 872.72 942.73 871.844C942.771 871.721 942.837 871.541 942.927 871.304L937.98 858.244H940.361L943.074 865.793C943.426 866.75 943.741 867.757 944.019 868.812C944.273 867.798 944.576 866.807 944.927 865.842L947.714 858.244H949.923L944.964 871.5C944.432 872.932 944.019 873.918 943.725 874.458C943.332 875.187 942.882 875.719 942.374 876.054C941.867 876.398 941.262 876.57 940.558 876.57C940.132 876.57 939.658 876.48 939.134 876.299Z" fill="#283A82"/>
<path d="M951.396 872.359L953.544 872.679C953.634 873.341 953.884 873.824 954.293 874.127C954.841 874.536 955.59 874.741 956.539 874.741C957.562 874.741 958.351 874.536 958.908 874.127C959.464 873.718 959.841 873.145 960.037 872.409C960.152 871.959 960.205 871.013 960.197 869.573C959.231 870.711 958.028 871.279 956.588 871.279C954.796 871.279 953.409 870.633 952.427 869.34C951.445 868.047 950.954 866.496 950.954 864.688C950.954 863.444 951.179 862.299 951.629 861.251C952.079 860.196 952.73 859.382 953.581 858.809C954.44 858.236 955.446 857.95 956.6 857.95C958.139 857.95 959.407 858.571 960.405 859.815V858.244H962.443V869.512C962.443 871.541 962.234 872.977 961.817 873.82C961.408 874.671 960.753 875.342 959.853 875.833C958.961 876.324 957.86 876.57 956.551 876.57C954.996 876.57 953.74 876.218 952.783 875.514C951.826 874.818 951.363 873.767 951.396 872.359ZM953.225 864.529C953.225 866.239 953.564 867.487 954.244 868.272C954.923 869.058 955.774 869.45 956.797 869.45C957.811 869.45 958.662 869.062 959.35 868.284C960.037 867.499 960.381 866.271 960.381 864.602C960.381 863.007 960.025 861.804 959.313 860.994C958.609 860.183 957.758 859.778 956.76 859.778C955.778 859.778 954.943 860.179 954.256 860.981C953.569 861.775 953.225 862.957 953.225 864.529Z" fill="#283A82"/>
<path d="M966.42 871.279V868.763H968.936V871.279H966.42Z" fill="#283A82"/>
<path d="M981.296 866.505L983.469 866.787C983.231 868.284 982.622 869.459 981.64 870.31C980.666 871.153 979.467 871.574 978.043 871.574C976.259 871.574 974.823 870.993 973.735 869.831C972.655 868.661 972.115 866.987 972.115 864.811C972.115 863.403 972.348 862.172 972.814 861.116C973.281 860.061 973.989 859.271 974.938 858.747C975.895 858.215 976.935 857.95 978.056 857.95C979.471 857.95 980.629 858.31 981.529 859.03C982.429 859.742 983.006 860.756 983.26 862.074L981.112 862.405C980.907 861.53 980.543 860.871 980.019 860.429C979.504 859.987 978.878 859.766 978.141 859.766C977.029 859.766 976.124 860.167 975.429 860.969C974.733 861.763 974.386 863.023 974.386 864.749C974.386 866.501 974.721 867.773 975.392 868.567C976.063 869.36 976.939 869.757 978.019 869.757C978.886 869.757 979.61 869.491 980.191 868.96C980.772 868.428 981.141 867.609 981.296 866.505Z" fill="#283A82"/>
<path d="M984.536 864.762C984.536 862.348 985.207 860.56 986.549 859.398C987.67 858.432 989.037 857.95 990.649 857.95C992.441 857.95 993.906 858.539 995.043 859.717C996.18 860.887 996.749 862.507 996.749 864.578C996.749 866.255 996.496 867.577 995.988 868.542C995.489 869.5 994.757 870.244 993.791 870.776C992.834 871.308 991.786 871.574 990.649 871.574C988.824 871.574 987.347 870.989 986.218 869.819C985.097 868.649 984.536 866.963 984.536 864.762ZM986.807 864.762C986.807 866.431 987.171 867.683 987.899 868.518C988.628 869.344 989.544 869.757 990.649 869.757C991.745 869.757 992.658 869.34 993.386 868.505C994.114 867.671 994.478 866.398 994.478 864.688C994.478 863.076 994.11 861.857 993.374 861.03C992.646 860.196 991.737 859.778 990.649 859.778C989.544 859.778 988.628 860.192 987.899 861.018C987.171 861.845 986.807 863.092 986.807 864.762Z" fill="#283A82"/>
<path d="M999.351 871.279V858.244H1001.33V860.073C1001.74 859.435 1002.28 858.923 1002.96 858.539C1003.64 858.146 1004.41 857.95 1005.28 857.95C1006.25 857.95 1007.03 858.15 1007.65 858.551C1008.27 858.952 1008.71 859.512 1008.96 860.233C1009.99 858.711 1011.34 857.95 1012.99 857.95C1014.28 857.95 1015.28 858.31 1015.97 859.03C1016.67 859.742 1017.01 860.842 1017.01 862.331V871.279H1014.82V863.068C1014.82 862.184 1014.74 861.55 1014.6 861.165C1014.46 860.773 1014.2 860.458 1013.82 860.22C1013.45 859.983 1013 859.864 1012.5 859.864C1011.58 859.864 1010.82 860.171 1010.21 860.785C1009.61 861.39 1009.31 862.364 1009.31 863.706V871.279H1007.1V862.81C1007.1 861.828 1006.92 861.092 1006.56 860.601C1006.2 860.11 1005.61 859.864 1004.79 859.864C1004.17 859.864 1003.59 860.028 1003.06 860.355C1002.53 860.683 1002.15 861.161 1001.92 861.791C1001.68 862.421 1001.56 863.33 1001.56 864.516V871.279H999.351Z" fill="#283A82"/>
<path d="M1020.92 871.279V868.763H1023.43V871.279H1020.92Z" fill="#283A82"/>
<path d="M1035.79 866.505L1037.97 866.787C1037.73 868.284 1037.12 869.459 1036.14 870.31C1035.16 871.153 1033.96 871.574 1032.54 871.574C1030.76 871.574 1029.32 870.993 1028.23 869.831C1027.15 868.661 1026.61 866.987 1026.61 864.811C1026.61 863.403 1026.85 862.172 1027.31 861.116C1027.78 860.061 1028.49 859.271 1029.44 858.747C1030.39 858.215 1031.43 857.95 1032.55 857.95C1033.97 857.95 1035.13 858.31 1036.03 859.03C1036.93 859.742 1037.5 860.756 1037.76 862.074L1035.61 862.405C1035.4 861.53 1035.04 860.871 1034.52 860.429C1034 859.987 1033.38 859.766 1032.64 859.766C1031.53 859.766 1030.62 860.167 1029.93 860.969C1029.23 861.763 1028.88 863.023 1028.88 864.749C1028.88 866.501 1029.22 867.773 1029.89 868.567C1030.56 869.36 1031.44 869.757 1032.52 869.757C1033.38 869.757 1034.11 869.491 1034.69 868.96C1035.27 868.428 1035.64 867.609 1035.79 866.505Z" fill="#283A82"/>
<path d="M1039.03 864.762C1039.03 862.348 1039.7 860.56 1041.05 859.398C1042.17 858.432 1043.53 857.95 1045.15 857.95C1046.94 857.95 1048.4 858.539 1049.54 859.717C1050.68 860.887 1051.25 862.507 1051.25 864.578C1051.25 866.255 1050.99 867.577 1050.49 868.542C1049.99 869.5 1049.25 870.244 1048.29 870.776C1047.33 871.308 1046.28 871.574 1045.15 871.574C1043.32 871.574 1041.84 870.989 1040.72 869.819C1039.59 868.649 1039.03 866.963 1039.03 864.762ZM1041.3 864.762C1041.3 866.431 1041.67 867.683 1042.4 868.518C1043.13 869.344 1044.04 869.757 1045.15 869.757C1046.24 869.757 1047.16 869.34 1047.88 868.505C1048.61 867.671 1048.98 866.398 1048.98 864.688C1048.98 863.076 1048.61 861.857 1047.87 861.03C1047.14 860.196 1046.23 859.778 1045.15 859.778C1044.04 859.778 1043.13 860.192 1042.4 861.018C1041.67 861.845 1041.3 863.092 1041.3 864.762Z" fill="#283A82"/>
<path d="M1092.33 189.604C862.463 206.323 793.716 283.619 743.94 343.249L785.886 331.546C859.711 242.936 961.455 206.323 1092.33 189.604Z" fill="url(#paint22_linear_2539_3400)"/>
<path d="M605.908 690.91L587.284 675.586C491.012 871.702 410.032 930.212 282.072 970.437C481.55 949.162 567.536 773.687 605.908 690.91Z" fill="url(#paint23_linear_2539_3400)"/>
<path d="M739.24 337.422C576.4 385.164 543.097 342.395 547.658 314.214L537.396 310.898C463.844 440.201 615.996 449.152 703.32 425.281C770.028 407.046 876.651 404.836 922.264 407.046L884.633 349.026L922.264 305.925C906.869 305.373 848.712 310.898 739.24 337.422Z" fill="url(#paint24_linear_2539_3400)"/>
<path d="M676.218 370.751L677.934 418.904L688.234 417.244L686.517 387.355L710.55 410.602L719.133 408.941V359.127L708.833 362.448V392.337L684.801 369.09L676.218 370.751Z" fill="#D9D9D9"/>
<path d="M692.621 364.825L685.755 366.6C685.755 350.628 697.771 354.177 701.204 354.177C703.951 354.177 705.21 351.219 704.637 350.628L711.504 348.853C710.932 351.811 711.504 359.501 704.638 361.276C700.914 362.238 701.204 361.276 697.771 361.276C695.025 361.276 692.621 363.05 692.621 364.825Z" fill="#D9D9D9"/>
<path d="M813.785 346.979L808.778 355.423C796.114 349.598 791.639 353.819 793.858 359.423C794.595 361.284 796.599 362.13 798.566 362.365C807.43 363.423 815.454 368.911 815.454 377.376C814.118 397.641 792.645 394.826 782.075 390.886L787.082 382.442C792.089 383.568 802.436 384.806 803.771 380.753C805.44 375.687 802.103 375.687 792.089 372.31C782.076 368.932 780.407 355.423 788.751 346.979C795.427 340.224 808.222 344.165 813.785 346.979Z" fill="#D9D9D9"/>
<path fill-rule="evenodd" clip-rule="evenodd" d="M742.267 405.352C756.45 410.307 772.534 401.783 778.191 386.312C783.849 370.842 776.937 354.284 762.753 349.329C748.57 344.374 732.486 352.898 726.828 368.369C721.171 383.839 728.083 400.397 742.267 405.352ZM745.414 394.922C753.949 397.903 763.813 392.27 767.444 382.339C771.076 372.407 767.101 361.939 758.566 358.958C750.03 355.976 740.167 361.61 736.535 371.541C732.904 381.472 736.879 391.94 745.414 394.922Z" fill="#D9D9D9"/>
<path fill-rule="evenodd" clip-rule="evenodd" d="M623.766 425.442L640.932 376.633L654.664 375.006L675.264 420.561L663.247 422.188L658.098 412.426L640.932 414.053L637.498 423.815L623.766 425.442ZM642.648 405.918L656.381 404.291L647.798 384.768L642.648 405.918Z" fill="#D9D9D9"/>
<defs>
<linearGradient id="paint0_linear_2539_3400" x1="-7.5845" y1="383.076" x2="526.895" y2="774.163" gradientUnits="userSpaceOnUse">
<stop offset="0.27468" stop-color="#075D96"/>
<stop offset="0.471655" stop-color="#18326C"/>
<stop offset="0.658248" stop-color="#163974"/>
<stop offset="0.925" stop-color="#0E5692"/>
</linearGradient>
<linearGradient id="paint1_linear_2539_3400" x1="279.829" y1="481.016" x2="546.773" y2="848.549" gradientUnits="userSpaceOnUse">
<stop stop-color="white"/>
<stop offset="0.711184" stop-color="white" stop-opacity="0"/>
</linearGradient>
<linearGradient id="paint2_linear_2539_3400" x1="21.0143" y1="551.533" x2="202.212" y2="824.265" gradientUnits="userSpaceOnUse">
<stop offset="0.109531" stop-color="white"/>
<stop offset="0.664267" stop-color="white" stop-opacity="0"/>
</linearGradient>
<linearGradient id="paint3_linear_2539_3400" x1="95.5975" y1="366.132" x2="101.946" y2="732.731" gradientUnits="userSpaceOnUse">
<stop stop-color="#F7F8FA"/>
<stop offset="0.96" stop-color="#F7F8FA" stop-opacity="0"/>
</linearGradient>
<linearGradient id="paint4_linear_2539_3400" x1="186.624" y1="689.767" x2="212.664" y2="603.371" gradientUnits="userSpaceOnUse">
<stop stop-color="white"/>
<stop offset="1" stop-color="white" stop-opacity="0"/>
</linearGradient>
<linearGradient id="paint5_linear_2539_3400" x1="290.397" y1="254.518" x2="432.06" y2="468.873" gradientUnits="userSpaceOnUse">
<stop offset="0.235494" stop-color="#F7F8FA"/>
<stop offset="0.89" stop-color="#F7F8FA" stop-opacity="0"/>
</linearGradient>
<linearGradient id="paint6_linear_2539_3400" x1="425.91" y1="561.144" x2="265.26" y2="497.458" gradientUnits="userSpaceOnUse">
<stop stop-color="#F7F8FA"/>
<stop offset="0.688298" stop-color="#929394" stop-opacity="0"/>
</linearGradient>
<linearGradient id="paint7_linear_2539_3400" x1="151.311" y1="409.564" x2="223.228" y2="537.056" gradientUnits="userSpaceOnUse">
<stop stop-color="white"/>
<stop offset="1" stop-color="white" stop-opacity="0"/>
</linearGradient>
<linearGradient id="paint8_linear_2539_3400" x1="364.731" y1="-40.1625" x2="772.427" y2="573.483" gradientUnits="userSpaceOnUse">
<stop offset="0.0651508" stop-color="#075D96"/>
<stop offset="0.478365" stop-color="#233F85"/>
<stop offset="0.628221" stop-color="#283A82"/>
<stop offset="0.865506" stop-color="#075D96"/>
</linearGradient>
<linearGradient id="paint9_linear_2539_3400" x1="571.149" y1="-73.3199" x2="528.184" y2="343.249" gradientUnits="userSpaceOnUse">
<stop offset="0.447551" stop-color="white" stop-opacity="0"/>
<stop offset="0.82178" stop-color="white"/>
</linearGradient>
<linearGradient id="paint10_linear_2539_3400" x1="614.814" y1="21.4823" x2="615.047" y2="122.822" gradientUnits="userSpaceOnUse">
<stop offset="0.171382" stop-color="white"/>
<stop offset="1" stop-color="white" stop-opacity="0"/>
</linearGradient>
<linearGradient id="paint11_linear_2539_3400" x1="659.413" y1="21.0152" x2="659.413" y2="322.234" gradientUnits="userSpaceOnUse">
<stop offset="0.405" stop-color="white" stop-opacity="0"/>
<stop offset="1" stop-color="white"/>
</linearGradient>
<linearGradient id="paint12_linear_2539_3400" x1="591.697" y1="173.259" x2="591.697" y2="408.63" gradientUnits="userSpaceOnUse">
<stop offset="0.0238095" stop-color="white"/>
<stop offset="0.801587" stop-color="white" stop-opacity="0"/>
</linearGradient>
<linearGradient id="paint13_linear_2539_3400" x1="1347.14" y1="222.416" x2="541.166" y2="908.986" gradientUnits="userSpaceOnUse">
<stop offset="0.311689" stop-color="#2280A0"/>
<stop offset="0.507656" stop-color="#CFD4D9"/>
<stop offset="0.757552" stop-color="#2280A0"/>
</linearGradient>
<linearGradient id="paint14_linear_2539_3400" x1="591.443" y1="706.314" x2="885.238" y2="500.5" gradientUnits="userSpaceOnUse">
<stop offset="0.524254" stop-color="#CFD4D9" stop-opacity="0.24"/>
<stop offset="0.676114" stop-color="#AEC0CE"/>
<stop offset="0.780859" stop-color="#2280A0"/>
</linearGradient>
<linearGradient id="paint15_linear_2539_3400" x1="535.028" y1="429.608" x2="952.654" y2="778.777" gradientUnits="userSpaceOnUse">
<stop offset="0.353523" stop-color="#CFD4D9" stop-opacity="0"/>
<stop offset="0.377037" stop-color="#68A2B7" stop-opacity="0.440487"/>
<stop offset="0.393026" stop-color="#2280A0" stop-opacity="0.74"/>
<stop offset="0.416775" stop-color="#2280A0" stop-opacity="0.909708"/>
<stop offset="0.456833" stop-color="#2280A0"/>
<stop offset="0.511877" stop-color="#2280A0"/>
<stop offset="0.564214" stop-color="#2280A0"/>
<stop offset="0.595456" stop-color="#2280A0" stop-opacity="0.547522"/>
<stop offset="0.614173" stop-color="#2280A0" stop-opacity="0.305732"/>
<stop offset="0.624193" stop-color="#2280A0" stop-opacity="0"/>
<stop offset="0.656177" stop-color="#C9D1D7" stop-opacity="0"/>
<stop offset="0.67329" stop-color="#CFD4D9" stop-opacity="0"/>
</linearGradient>
<linearGradient id="paint16_linear_2539_3400" x1="767.404" y1="497.358" x2="773.689" y2="726.739" gradientUnits="userSpaceOnUse">
<stop offset="0.365784" stop-color="#0C2E3A"/>
<stop offset="0.474828" stop-color="#217C9C" stop-opacity="0.961234"/>
<stop offset="0.576265" stop-color="#0C2E3A" stop-opacity="0"/>
</linearGradient>
<linearGradient id="paint17_linear_2539_3400" x1="943.457" y1="655.899" x2="1232.36" y2="574.481" gradientUnits="userSpaceOnUse">
<stop offset="0.224738" stop-color="#2280A0" stop-opacity="0"/>
<stop offset="0.342752" stop-color="#2280A0" stop-opacity="0.9"/>
<stop offset="0.465272" stop-color="#2280A0"/>
<stop offset="0.592416" stop-color="#2280A0" stop-opacity="0.8"/>
<stop offset="0.705737" stop-color="#2280A0" stop-opacity="0"/>
</linearGradient>
<linearGradient id="paint18_linear_2539_3400" x1="1095.87" y1="621.475" x2="990.502" y2="475.362" gradientUnits="userSpaceOnUse">
<stop stop-color="#2280A0" stop-opacity="0"/>
<stop offset="0.501828" stop-color="#2280A0"/>
<stop offset="0.947445" stop-color="#0C2E3A"/>
</linearGradient>
<linearGradient id="paint19_linear_2539_3400" x1="1042.35" y1="685.889" x2="1040.78" y2="498.929" gradientUnits="userSpaceOnUse">
<stop offset="0.168123" stop-color="#2280A0" stop-opacity="0"/>
<stop offset="0.320706" stop-color="#2280A0" stop-opacity="0.141785"/>
<stop offset="0.393111" stop-color="#2280A0"/>
<stop offset="0.528724" stop-color="#0C2E3A"/>
</linearGradient>
<linearGradient id="paint20_linear_2539_3400" x1="752.903" y1="569.628" x2="752.903" y2="608.906" gradientUnits="userSpaceOnUse">
<stop stop-color="#979BAC" stop-opacity="0.14"/>
<stop offset="1" stop-color="#3D3F46"/>
</linearGradient>
<linearGradient id="paint21_linear_2539_3400" x1="1075.73" y1="594.728" x2="1042.35" y2="593.195" gradientUnits="userSpaceOnUse">
<stop stop-color="#CECECF" stop-opacity="0.52"/>
<stop offset="1" stop-color="#686869"/>
</linearGradient>
<linearGradient id="paint22_linear_2539_3400" x1="353.004" y1="599.047" x2="1588.78" y2="-173.966" gradientUnits="userSpaceOnUse">
<stop offset="0.328566" stop-color="#F95247"/>
<stop offset="0.447771" stop-color="#B22335"/>
<stop offset="0.536229" stop-color="#322959"/>
</linearGradient>
<linearGradient id="paint23_linear_2539_3400" x1="558.289" y1="596.584" x2="20.2193" y2="1030.81" gradientUnits="userSpaceOnUse">
<stop stop-color="#B22335"/>
<stop offset="0.130465" stop-color="#322959"/>
<stop offset="0.216173" stop-color="#F95247"/>
<stop offset="0.388111" stop-color="#322959"/>
<stop offset="0.555" stop-color="#9F3F4F"/>
<stop offset="0.69389" stop-color="#F95247"/>
</linearGradient>
<linearGradient id="paint24_linear_2539_3400" x1="460.424" y1="304.267" x2="921.619" y2="375.007" gradientUnits="userSpaceOnUse">
<stop stop-color="#322959"/>
<stop offset="0.265" stop-color="#B22335"/>
<stop offset="0.535" stop-color="#C5273B"/>
<stop offset="1" stop-color="#CC293D"/>
</linearGradient>
</defs>
</svg>
