<svg width="118" height="83" viewBox="0 0 118 83" fill="none" xmlns="http://www.w3.org/2000/svg">
<path fill-rule="evenodd" clip-rule="evenodd" d="M112.602 36.1006C115.451 33.3466 116.904 30.44 116.904 27.4986C116.904 24.5573 115.451 21.6507 112.602 18.8967C109.75 16.1396 105.565 13.6062 100.305 11.4553C89.7889 7.15581 75.1861 4.47131 59 4.47131C42.8139 4.47131 28.2111 7.15581 17.6954 11.4553C12.4349 13.6062 8.25031 16.1396 5.39813 18.8967C2.54917 21.6507 1.09582 24.5573 1.09582 27.4986C1.09582 30.44 2.54917 33.3466 5.39813 36.1006C8.25031 38.8577 12.4349 41.3911 17.6954 43.542C28.2111 47.8415 42.8139 50.526 59 50.526C75.1861 50.526 89.7889 47.8415 100.305 43.542C105.565 41.3911 109.75 38.8577 112.602 36.1006ZM59 51.6218C91.5848 51.6218 118 40.8215 118 27.4986C118 14.1758 91.5848 3.37549 59 3.37549C26.4152 3.37549 0 14.1758 0 27.4986C0 40.8215 26.4152 51.6218 59 51.6218Z" fill="#D9D9D9"/>
<path d="M51.7341 32.7297C43.1489 46.6806 30.808 52.4932 24.7046 53.3651C50.2809 58.3061 61.6159 32.7297 71.4977 16.1632C77.464 6.16098 90.0987 1.14677 96.2021 0.177945C72.079 -1.85654 63.3597 13.8381 51.7341 32.7297Z" fill="#EDEEEF"/>
<path d="M55.8033 34.4738C43.5964 51.0042 31.4863 53.2685 25.5767 53.3654C46.2121 58.5969 61.0348 36.7989 69.754 19.3605C75.3159 8.23677 89.6144 1.7283 96.2023 0.178223C70.3353 2.50335 67.2972 18.9088 55.8033 34.4738Z" fill="url(#paint0_linear_871_1590)"/>
<path d="M74.6951 15.5821V23.1388C79.7329 18.8324 90.3899 14.7102 94.1682 20.8136C99.5658 29.5328 89.8084 39.1239 85.7396 38.5427C82.4846 38.0776 82.8333 34.8612 83.4145 33.3111H89.8084C91.9009 30.2885 89.9054 27.789 88.646 26.9171H74.6951C71.2074 34.1831 71.3178 49.1931 89.8084 44.6461C107.537 40.2865 108.7 20.523 97.9464 12.9664C89.3434 6.92106 78.8609 12.1913 74.6951 15.5821Z" fill="#EDEEEF"/>
<path d="M25.8663 21.9756C31.1001 10.5108 42.8203 17.4222 47.3737 21.9756L48.827 13.2563C40.3985 5.40913 28.4826 6.86227 20.635 15.0002C12.217 23.7296 11.9158 43.4829 31.098 45.2268C46.4438 46.6218 47.7614 32.6324 46.502 25.4632C43.208 25.3664 35.8064 25.2307 32.5512 25.4632C29.2961 25.6957 29.0635 30.4041 29.3542 32.7292H36.0387C35.1668 43.4829 19.763 35.345 25.8663 21.9756Z" fill="#EDEEEF"/>
<path opacity="0.6" d="M48.8276 13.2568L45.0493 15.2913L46.5025 21.1041L47.3744 21.976L48.8276 13.2568Z" fill="#767676" fill-opacity="0.44"/>
<path d="M45.0488 15.2914L47.0833 21.6855C34.2951 11.2225 28.0948 16.9384 26.4478 21.1042C24.5877 21.5692 22.1851 23.8169 21.2163 24.8826C24.704 8.6067 38.5579 11.7069 45.0488 15.2914Z" fill="url(#paint1_linear_871_1590)"/>
<path d="M25.8674 40.577C13.3118 34.0666 19.4735 21.976 23.8331 16.7444C21.7408 17.442 21.0235 15.6788 20.9265 14.71C11.6257 24.5917 14.2417 39.1238 22.9609 42.9021C32.5517 47.843 43.0157 45.2272 45.631 37.0893C45.166 37.7868 49.9901 23.7198 43.0157 35.6361C40.9802 40.577 33.715 43.4834 25.8674 40.577Z" fill="url(#paint2_linear_871_1590)"/>
<path d="M32.8427 28.9517L29.355 32.73H36.0397C35.7491 35.0551 35.2647 35.4426 34.8771 36.2177C36.7372 36.4502 37.4929 37.6709 37.4929 38.2522C40.8234 33.6728 39.433 30.6152 37.993 29.3297C37.6866 29.0562 37.2751 28.9517 36.8644 28.9517H32.8427Z" fill="url(#paint3_linear_871_1590)"/>
<path d="M77.31 30.6951L74.6942 27.498C72.6608 30.6951 69.7543 44.9364 83.4134 45.5177C103.759 44.3552 105.794 30.4044 104.34 22.5571L101.142 23.4291C99.3986 46.099 80.7977 42.3207 77.8912 39.7049C75.5661 37.6123 76.5349 32.8264 77.31 30.6951Z" fill="url(#paint4_linear_871_1590)"/>
<path d="M78.1825 17.3261L74.6948 23.139C77.795 20.8138 86.0298 16.4542 90.68 18.1981C97.3648 20.7048 95.5241 30.0174 93.0052 33.8927L96.4929 35.0552C99.3993 31.2769 102.015 20.8138 94.4584 15.8729C88.4131 11.9202 81.0889 15.1947 78.1825 17.3261Z" fill="url(#paint5_linear_871_1590)"/>
<path d="M87.1923 30.1143L89.808 33.3113H83.5591C82.7453 34.7064 83.1231 36.4115 83.4137 37.0896H79.6356C78.1824 34.4739 79.6356 30.6955 81.0888 30.4049C82.2514 30.1724 85.6422 30.1143 87.1923 30.1143Z" fill="url(#paint6_linear_871_1590)"/>
<path opacity="0.6" d="M78.1825 17.326L74.6948 23.1388V15.582L78.1825 17.326Z" fill="#B9B9BA"/>
<path d="M32.8431 25.4639V28.9516L29.3554 32.7299C28.7735 27.2077 30.8084 25.4638 32.8431 25.4639Z" fill="url(#paint7_linear_871_1590)" fill-opacity="0.68"/>
<path d="M88.6456 26.9165C91.8426 29.2416 90.6801 32.148 89.8081 33.3106L87.1924 30.1135L88.6456 26.9165Z" fill="url(#paint8_linear_871_1590)"/>
<path fill-rule="evenodd" clip-rule="evenodd" d="M59.5063 74.9851V64.2314H60.2369V74.9851H59.5063Z" fill="white"/>
<path d="M22.6143 71.488L24.6578 71.2893C24.7808 71.9753 25.0292 72.4791 25.4029 72.8007C25.7813 73.1224 26.2898 73.2832 26.9285 73.2832C27.6049 73.2832 28.1134 73.1413 28.454 72.8575C28.7994 72.5689 28.972 72.2331 28.972 71.8499C28.972 71.6039 28.8987 71.3958 28.752 71.2255C28.6101 71.0505 28.3594 70.8991 27.9999 70.7714C27.7539 70.6862 27.1934 70.5348 26.3182 70.3172C25.1924 70.0381 24.4024 69.6952 23.9483 69.2884C23.3096 68.716 22.9903 68.0182 22.9903 67.1951C22.9903 66.6653 23.1393 66.171 23.4374 65.7121C23.7401 65.2485 24.1729 64.8961 24.7359 64.6549C25.3035 64.4136 25.9871 64.293 26.7865 64.293C28.0921 64.293 29.0737 64.5792 29.7313 65.1515C30.3935 65.7239 30.7412 66.4879 30.7743 67.4435L28.674 67.5357C28.5841 67.0012 28.3902 66.618 28.0921 66.3862C27.7989 66.1497 27.3566 66.0314 26.7652 66.0314C26.155 66.0314 25.6772 66.1568 25.3319 66.4075C25.1096 66.5683 24.9984 66.7836 24.9984 67.0532C24.9984 67.2992 25.1025 67.5097 25.3106 67.6847C25.5755 67.9071 26.2189 68.1388 27.2407 68.3801C28.2624 68.6214 29.017 68.8721 29.5042 69.1322C29.9962 69.3877 30.3793 69.7401 30.6537 70.1895C30.9328 70.6342 31.0723 71.1853 31.0723 71.8428C31.0723 72.4388 30.9068 72.997 30.5756 73.5174C30.2445 74.0377 29.7762 74.4256 29.1707 74.6811C28.5652 74.9318 27.8107 75.0572 26.9072 75.0572C25.5921 75.0572 24.5821 74.7544 23.8773 74.1489C23.1725 73.5387 22.7514 72.6517 22.6143 71.488Z" fill="#FDFEFF"/>
<path d="M32.7753 74.8727V64.4704H34.8757V74.8727H32.7753Z" fill="#FDFEFF"/>
<path d="M40.8644 74.8727V64.4704H42.9648V74.8727H40.8644Z" fill="#FDFEFF"/>
<path d="M44.987 74.8727V64.4704H52.1182V66.2301H47.0874V68.6923H51.4299V70.452H47.0874V74.8727H44.987Z" fill="#FDFEFF"/>
<path d="M68.2817 67.4551L68.8874 67.6081C68.7604 68.1055 68.5315 68.4854 68.2005 68.7477C67.8717 69.0078 67.4689 69.1379 66.9923 69.1379C66.499 69.1379 66.0973 69.038 65.7871 68.8382C65.4791 68.6363 65.2439 68.3449 65.0815 67.964C64.9213 67.5831 64.8411 67.1741 64.8411 66.737C64.8411 66.2604 64.9317 65.8451 65.1128 65.4913C65.2959 65.1354 65.5551 64.8658 65.8902 64.6827C66.2273 64.4974 66.5978 64.4048 67.0016 64.4048C67.4595 64.4048 67.8446 64.5214 68.1568 64.7545C68.469 64.9876 68.6865 65.3154 68.8093 65.7379L68.213 65.8784C68.1069 65.5454 67.9528 65.3029 67.7509 65.151C67.549 64.999 67.2951 64.9231 66.9891 64.9231C66.6374 64.9231 66.3429 65.0074 66.1056 65.176C65.8704 65.3446 65.7049 65.5714 65.6092 65.8566C65.5134 66.1397 65.4656 66.4321 65.4656 66.7339C65.4656 67.1231 65.5217 67.4634 65.6341 67.7548C65.7486 68.0441 65.9255 68.2606 66.1649 68.4042C66.4043 68.5478 66.6634 68.6197 66.9423 68.6197C67.2816 68.6197 67.5688 68.5218 67.804 68.3262C68.0392 68.1305 68.1984 67.8402 68.2817 67.4551Z" fill="#FDFEFF"/>
<path d="M69.3557 67.402C69.3557 66.788 69.5264 66.3332 69.8677 66.0377C70.1529 65.7921 70.5005 65.6693 70.9105 65.6693C71.3663 65.6693 71.7389 65.8191 72.0282 66.1188C72.3176 66.4165 72.4622 66.8286 72.4622 67.3552C72.4622 67.7819 72.3977 68.118 72.2686 68.3636C72.1417 68.6072 71.9554 68.7966 71.7098 68.9319C71.4663 69.0672 71.1998 69.1348 70.9105 69.1348C70.4464 69.1348 70.0707 68.986 69.7834 68.6883C69.4983 68.3907 69.3557 67.9619 69.3557 67.402ZM69.9333 67.402C69.9333 67.8266 70.0259 68.1451 70.2112 68.3574C70.3964 68.5676 70.6295 68.6727 70.9105 68.6727C71.1894 68.6727 71.4215 68.5666 71.6068 68.3543C71.792 68.142 71.8846 67.8183 71.8846 67.3833C71.8846 66.9733 71.791 66.6631 71.6036 66.4529C71.4184 66.2406 71.1873 66.1344 70.9105 66.1344C70.6295 66.1344 70.3964 66.2396 70.2112 66.4498C70.0259 66.66 69.9333 66.9774 69.9333 67.402Z" fill="#FDFEFF"/>
<path d="M73.1179 69.0599V65.7442H73.6236V66.2468C73.7527 66.0116 73.8713 65.8566 73.9796 65.7816C74.0899 65.7067 74.2106 65.6693 74.3417 65.6693C74.5311 65.6693 74.7237 65.7296 74.9193 65.8503L74.7257 66.3717C74.5884 66.2906 74.451 66.25 74.3136 66.25C74.1908 66.25 74.0805 66.2874 73.9827 66.3624C73.8848 66.4352 73.8151 66.5372 73.7735 66.6683C73.7111 66.8681 73.6798 67.0867 73.6798 67.324V69.0599H73.1179Z" fill="#FDFEFF"/>
<path d="M77.5232 67.9921L78.1039 68.0639C78.0123 68.4032 77.8427 68.6665 77.595 68.8538C77.3473 69.0411 77.0309 69.1348 76.6458 69.1348C76.1609 69.1348 75.7758 68.986 75.4907 68.6883C75.2076 68.3886 75.0661 67.9692 75.0661 67.4301C75.0661 66.8723 75.2097 66.4394 75.4969 66.1313C75.7841 65.8233 76.1567 65.6693 76.6146 65.6693C77.058 65.6693 77.4201 65.8202 77.7011 66.122C77.9821 66.4238 78.1226 66.8484 78.1226 67.3958C78.1226 67.4291 78.1216 67.479 78.1195 67.5456H75.6468C75.6676 67.9099 75.7706 68.1888 75.9559 68.3824C76.1411 68.5759 76.3721 68.6727 76.649 68.6727C76.855 68.6727 77.0309 68.6186 77.1766 68.5104C77.3223 68.4021 77.4378 68.2294 77.5232 67.9921ZM75.678 67.0836H77.5294C77.5044 66.8047 77.4337 66.5955 77.3171 66.456C77.1381 66.2396 76.906 66.1313 76.6209 66.1313C76.3628 66.1313 76.1453 66.2177 75.9683 66.3905C75.7935 66.5632 75.6967 66.7943 75.678 67.0836Z" fill="#FDFEFF"/>
<path d="M64.991 69.7144H66.8205C67.1827 69.7144 67.4523 69.73 67.6292 69.7612C67.8082 69.7903 67.9674 69.8528 68.1069 69.9485C68.2484 70.0443 68.366 70.1723 68.4597 70.3326C68.5533 70.4907 68.6002 70.6687 68.6002 70.8664C68.6002 71.0808 68.5419 71.2775 68.4253 71.4565C68.3108 71.6355 68.1547 71.7698 67.957 71.8593C68.2359 71.9404 68.4503 72.0789 68.6002 72.2745C68.75 72.4702 68.8249 72.7002 68.8249 72.9645C68.8249 73.1726 68.776 73.3756 68.6782 73.5733C68.5825 73.769 68.4503 73.9261 68.2817 74.0447C68.1152 74.1613 67.9091 74.2331 67.6635 74.2602C67.5095 74.2768 67.138 74.2872 66.5489 74.2914H64.991V69.7144ZM65.9151 70.4762V71.5346H66.5208C66.8809 71.5346 67.1047 71.5294 67.1921 71.519C67.3503 71.5002 67.4741 71.4461 67.5636 71.3566C67.6552 71.265 67.701 71.1453 67.701 70.9976C67.701 70.856 67.6614 70.7416 67.5823 70.6541C67.5053 70.5646 67.3898 70.5105 67.2358 70.4918C67.1442 70.4814 66.8809 70.4762 66.4459 70.4762H65.9151ZM65.9151 72.2964V73.5202H66.7706C67.1036 73.5202 67.3149 73.5109 67.4044 73.4921C67.5418 73.4672 67.6531 73.4068 67.7384 73.3111C67.8259 73.2132 67.8696 73.0831 67.8696 72.9208C67.8696 72.7834 67.8363 72.6669 67.7697 72.5711C67.7031 72.4754 67.6063 72.4056 67.4793 72.3619C67.3544 72.3182 67.0818 72.2964 66.6613 72.2964H65.9151Z" fill="#FDFEFF"/>
<path d="M70.258 71.9873L69.4619 71.8437C69.5514 71.5231 69.7054 71.2858 69.9239 71.1318C70.1425 70.9778 70.4672 70.9008 70.898 70.9008C71.2893 70.9008 71.5807 70.9476 71.7722 71.0413C71.9637 71.1329 72.098 71.2505 72.175 71.3941C72.2541 71.5356 72.2936 71.7968 72.2936 72.1777L72.2842 73.2018C72.2842 73.4932 72.2978 73.7086 72.3248 73.8481C72.354 73.9854 72.4071 74.1332 72.4841 74.2914H71.6161C71.5932 74.2331 71.5651 74.1467 71.5318 74.0323C71.5172 73.9802 71.5068 73.9459 71.5006 73.9292C71.3507 74.0749 71.1905 74.1842 71.0198 74.2571C70.8491 74.3299 70.667 74.3663 70.4734 74.3663C70.1321 74.3663 69.8625 74.2737 69.6648 74.0885C69.4691 73.9032 69.3713 73.6691 69.3713 73.386C69.3713 73.1987 69.4161 73.0321 69.5056 72.8864C69.5951 72.7387 69.7199 72.6263 69.8802 72.5493C70.0426 72.4702 70.2757 72.4015 70.5796 72.3432C70.9896 72.2662 71.2737 72.1944 71.4319 72.1278V72.0404C71.4319 71.8718 71.3903 71.7521 71.307 71.6813C71.2238 71.6085 71.0666 71.572 70.8356 71.572C70.6795 71.572 70.5577 71.6033 70.4703 71.6657C70.3829 71.7261 70.3121 71.8333 70.258 71.9873ZM71.4319 72.6991C71.3195 72.7366 71.1416 72.7813 70.898 72.8334C70.6545 72.8854 70.4953 72.9364 70.4203 72.9864C70.3059 73.0675 70.2486 73.1706 70.2486 73.2954C70.2486 73.4182 70.2944 73.5244 70.386 73.6139C70.4776 73.7034 70.5941 73.7481 70.7357 73.7481C70.8939 73.7481 71.0448 73.6961 71.1884 73.592C71.2945 73.5129 71.3643 73.4162 71.3976 73.3017C71.4205 73.2268 71.4319 73.0842 71.4319 72.874V72.6991Z" fill="#FDFEFF"/>
<path d="M76.1775 74.2914H75.3002V72.5992C75.3002 72.2412 75.2815 72.0102 75.244 71.9061C75.2065 71.7999 75.1451 71.7177 75.0598 71.6595C74.9766 71.6012 74.8756 71.572 74.757 71.572C74.605 71.572 74.4687 71.6137 74.348 71.6969C74.2272 71.7802 74.144 71.8905 74.0982 72.0279C74.0545 72.1652 74.0326 72.4192 74.0326 72.7897V74.2914H73.1553V70.9757H73.9702V71.4628C74.2595 71.0881 74.6238 70.9008 75.0629 70.9008C75.2565 70.9008 75.4334 70.9362 75.5937 71.0069C75.754 71.0756 75.8747 71.1641 75.9559 71.2723C76.0391 71.3805 76.0964 71.5033 76.1276 71.6407C76.1609 71.7781 76.1775 71.9748 76.1775 72.2308V74.2914Z" fill="#FDFEFF"/>
<path d="M79.9615 71.9561L79.0967 72.1122C79.0676 71.9394 79.001 71.8093 78.8969 71.7219C78.7949 71.6345 78.6617 71.5908 78.4973 71.5908C78.2787 71.5908 78.1039 71.6667 77.9727 71.8187C77.8437 71.9685 77.7792 72.2204 77.7792 72.5742C77.7792 72.9676 77.8447 73.2455 77.9759 73.4078C78.1091 73.5702 78.287 73.6514 78.5097 73.6514C78.6763 73.6514 78.8126 73.6045 78.9187 73.5109C79.0249 73.4151 79.0998 73.2517 79.1435 73.0207L80.0052 73.1674C79.9157 73.5629 79.744 73.8616 79.4901 74.0635C79.2362 74.2654 78.8958 74.3663 78.4692 74.3663C77.9842 74.3663 77.597 74.2133 77.3077 73.9074C77.0205 73.6014 76.8769 73.1778 76.8769 72.6367C76.8769 72.0893 77.0215 71.6636 77.3109 71.3597C77.6002 71.0538 77.9915 70.9008 78.4848 70.9008C78.8886 70.9008 79.2091 70.9882 79.4464 71.163C79.6857 71.3358 79.8575 71.6001 79.9615 71.9561Z" fill="#FDFEFF"/>
<path d="M81.2853 71.9873L80.4892 71.8437C80.5787 71.5231 80.7327 71.2858 80.9512 71.1318C81.1698 70.9778 81.4945 70.9008 81.9253 70.9008C82.3166 70.9008 82.608 70.9476 82.7995 71.0413C82.991 71.1329 83.1253 71.2505 83.2023 71.3941C83.2814 71.5356 83.3209 71.7968 83.3209 72.1777L83.3116 73.2018C83.3116 73.4932 83.3251 73.7086 83.3521 73.8481C83.3813 73.9854 83.4344 74.1332 83.5114 74.2914H82.6434C82.6205 74.2331 82.5924 74.1467 82.5591 74.0323C82.5446 73.9802 82.5341 73.9459 82.5279 73.9292C82.378 74.0749 82.2178 74.1842 82.0471 74.2571C81.8764 74.3299 81.6943 74.3663 81.5007 74.3663C81.1594 74.3663 80.8898 74.2737 80.6921 74.0885C80.4964 73.9032 80.3986 73.6691 80.3986 73.386C80.3986 73.1987 80.4434 73.0321 80.5329 72.8864C80.6224 72.7387 80.7473 72.6263 80.9075 72.5493C81.0699 72.4702 81.303 72.4015 81.6069 72.3432C82.0169 72.2662 82.301 72.1944 82.4592 72.1278V72.0404C82.4592 71.8718 82.4176 71.7521 82.3343 71.6813C82.2511 71.6085 82.0939 71.572 81.8629 71.572C81.7068 71.572 81.585 71.6033 81.4976 71.6657C81.4102 71.7261 81.3394 71.8333 81.2853 71.9873ZM82.4592 72.6991C82.3468 72.7366 82.1689 72.7813 81.9253 72.8334C81.6818 72.8854 81.5226 72.9364 81.4477 72.9864C81.3332 73.0675 81.2759 73.1706 81.2759 73.2954C81.2759 73.4182 81.3217 73.5244 81.4133 73.6139C81.5049 73.7034 81.6214 73.7481 81.763 73.7481C81.9212 73.7481 82.0721 73.6961 82.2157 73.592C82.3218 73.5129 82.3916 73.4162 82.4249 73.3017C82.4478 73.2268 82.4592 73.0842 82.4592 72.874V72.6991Z" fill="#FDFEFF"/>
<path d="M85.0287 74.2914H84.1514V70.9757H84.9663V71.4471C85.1057 71.2244 85.2306 71.0777 85.3409 71.0069C85.4533 70.9362 85.5803 70.9008 85.7218 70.9008C85.9216 70.9008 86.1142 70.9559 86.2994 71.0663L86.0278 71.8312C85.88 71.7354 85.7426 71.6876 85.6157 71.6876C85.4929 71.6876 85.3888 71.7219 85.3035 71.7906C85.2181 71.8572 85.1505 71.979 85.1005 72.1559C85.0527 72.3328 85.0287 72.7033 85.0287 73.2673V74.2914Z" fill="#FDFEFF"/>
<path d="M86.6803 70.5261V69.7144H87.5576V70.5261H86.6803ZM86.6803 74.2914V70.9757H87.5576V74.2914H86.6803Z" fill="#FDFEFF"/>
<path d="M88.257 72.5867C88.257 72.2953 88.3288 72.0133 88.4724 71.7406C88.616 71.468 88.819 71.2598 89.0812 71.1162C89.3456 70.9726 89.6401 70.9008 89.9648 70.9008C90.4664 70.9008 90.8775 71.0642 91.198 71.391C91.5186 71.7157 91.6788 72.1267 91.6788 72.6242C91.6788 73.1258 91.5165 73.5421 91.1918 73.873C90.8691 74.2019 90.4622 74.3663 89.971 74.3663C89.6671 74.3663 89.3768 74.2976 89.1 74.1603C88.8252 74.0229 88.616 73.822 88.4724 73.5577C88.3288 73.2913 88.257 72.9676 88.257 72.5867ZM89.1562 72.6336C89.1562 72.9624 89.2342 73.2143 89.3903 73.3891C89.5464 73.5639 89.7389 73.6514 89.9679 73.6514C90.1969 73.6514 90.3883 73.5639 90.5424 73.3891C90.6985 73.2143 90.7765 72.9603 90.7765 72.6273C90.7765 72.3026 90.6985 72.0528 90.5424 71.878C90.3883 71.7032 90.1969 71.6157 89.9679 71.6157C89.7389 71.6157 89.5464 71.7032 89.3903 71.878C89.2342 72.0528 89.1562 72.3047 89.1562 72.6336Z" fill="#FDFEFF"/>
<path d="M33.8851 81.2668L33.1471 78.8554H33.5695L34.0963 80.765C34.1023 80.7392 34.1439 80.5735 34.2211 80.2677L34.6049 78.8554H35.0249L35.386 80.2541L35.5063 80.715L35.6448 80.2495L36.0581 78.8554H36.4554L35.7016 81.2668H35.277L34.8932 79.8226L34.8002 79.4117L34.312 81.2668H33.8851Z" fill="#FDFEFF"/>
<path d="M37.2456 81.2668L36.5077 78.8554H36.93L37.4568 80.765C37.4628 80.7392 37.5045 80.5735 37.5817 80.2677L37.9654 78.8554H38.3855L38.7465 80.2541L38.8668 80.715L39.0054 80.2495L39.4186 78.8554H39.816L39.0621 81.2668H38.6375L38.2538 79.8226L38.1607 79.4117L37.6725 81.2668H37.2456Z" fill="#FDFEFF"/>
<path d="M40.6061 81.2668L39.8682 78.8554H40.2905L40.8173 80.765C40.8234 80.7392 40.865 80.5735 40.9422 80.2677L41.3259 78.8554H41.746L42.107 80.2541L42.2274 80.715L42.3659 80.2495L42.7791 78.8554H43.1765L42.4227 81.2668H41.998L41.6143 79.8226L41.5212 79.4117L41.033 81.2668H40.6061Z" fill="#FDFEFF"/>
<path d="M43.3786 81.2668V80.8013H43.8441V81.2668H43.3786Z" fill="#FDFEFF"/>
<path d="M44.3936 80.547L44.7977 80.4834C44.8204 80.6454 44.8833 80.7695 44.9862 80.8558C45.0906 80.9421 45.236 80.9852 45.4221 80.9852C45.6099 80.9852 45.7491 80.9474 45.8399 80.8717C45.9308 80.7945 45.9762 80.7044 45.9762 80.6015C45.9762 80.5091 45.9361 80.4365 45.8558 80.3835C45.7998 80.3472 45.6606 80.301 45.438 80.245C45.1383 80.1693 44.9302 80.1042 44.8136 80.0497C44.6986 79.9937 44.6108 79.9173 44.5502 79.8204C44.4912 79.722 44.4617 79.6137 44.4617 79.4957C44.4617 79.3882 44.4859 79.289 44.5343 79.1982C44.5843 79.1059 44.6516 79.0294 44.7364 78.9689C44.8 78.922 44.8863 78.8826 44.9953 78.8508C45.1058 78.8175 45.2238 78.8009 45.3495 78.8009C45.5387 78.8009 45.7045 78.8281 45.8468 78.8826C45.9906 78.9371 46.0965 79.0113 46.1646 79.1051C46.2328 79.1975 46.2797 79.3216 46.3054 79.4775L45.9058 79.532C45.8876 79.4079 45.8346 79.311 45.7468 79.2414C45.6606 79.1717 45.538 79.1369 45.379 79.1369C45.1913 79.1369 45.0573 79.1679 44.9771 79.23C44.8969 79.2921 44.8568 79.3647 44.8568 79.448C44.8568 79.501 44.8734 79.5487 44.9067 79.591C44.94 79.6349 44.9922 79.6713 45.0634 79.7C45.1043 79.7152 45.2246 79.75 45.4244 79.8045C45.7135 79.8817 45.9149 79.9453 46.0284 79.9952C46.1435 80.0437 46.2335 80.1148 46.2986 80.2087C46.3637 80.3025 46.3962 80.4191 46.3962 80.5583C46.3962 80.6946 46.3561 80.8232 46.2759 80.9443C46.1972 81.0639 46.0829 81.157 45.933 81.2236C45.7832 81.2887 45.6136 81.3213 45.4244 81.3213C45.1111 81.3213 44.8719 81.2562 44.7069 81.126C44.5434 80.9958 44.439 80.8028 44.3936 80.547Z" fill="#FDFEFF"/>
<path d="M46.8844 78.408V77.938H47.2931V78.408H46.8844ZM46.8844 81.2668V78.8554H47.2931V81.2668H46.8844Z" fill="#FDFEFF"/>
<path d="M47.7541 80.547L48.1583 80.4834C48.181 80.6454 48.2438 80.7695 48.3467 80.8558C48.4512 80.9421 48.5965 80.9852 48.7827 80.9852C48.9704 80.9852 49.1096 80.9474 49.2005 80.8717C49.2913 80.7945 49.3367 80.7044 49.3367 80.6015C49.3367 80.5091 49.2966 80.4365 49.2164 80.3835C49.1604 80.3472 49.0211 80.301 48.7986 80.245C48.4988 80.1693 48.2907 80.1042 48.1742 80.0497C48.0591 79.9937 47.9713 79.9173 47.9108 79.8204C47.8517 79.722 47.8222 79.6137 47.8222 79.4957C47.8222 79.3882 47.8464 79.289 47.8949 79.1982C47.9448 79.1059 48.0122 79.0294 48.097 78.9689C48.1605 78.922 48.2468 78.8826 48.3558 78.8508C48.4663 78.8175 48.5844 78.8009 48.71 78.8009C48.8992 78.8009 49.065 78.8281 49.2073 78.8826C49.3511 78.9371 49.4571 79.0113 49.5252 79.1051C49.5933 79.1975 49.6402 79.3216 49.666 79.4775L49.2663 79.532C49.2482 79.4079 49.1952 79.311 49.1074 79.2414C49.0211 79.1717 48.8985 79.1369 48.7395 79.1369C48.5518 79.1369 48.4179 79.1679 48.3376 79.23C48.2574 79.2921 48.2173 79.3647 48.2173 79.448C48.2173 79.501 48.2339 79.5487 48.2672 79.591C48.3005 79.6349 48.3528 79.6713 48.4239 79.7C48.4648 79.7152 48.5851 79.75 48.785 79.8045C49.0741 79.8817 49.2754 79.9453 49.3889 79.9952C49.504 80.0437 49.594 80.1148 49.6591 80.2087C49.7242 80.3025 49.7568 80.4191 49.7568 80.5583C49.7568 80.6946 49.7167 80.8232 49.6364 80.9443C49.5577 81.0639 49.4434 81.157 49.2936 81.2236C49.1437 81.2887 48.9742 81.3213 48.785 81.3213C48.4716 81.3213 48.2324 81.2562 48.0674 81.126C47.9039 80.9958 47.7995 80.8028 47.7541 80.547Z" fill="#FDFEFF"/>
<path d="M51.135 80.9012L51.1941 81.2622C51.079 81.2864 50.9761 81.2986 50.8853 81.2986C50.7369 81.2986 50.6219 81.2751 50.5401 81.2282C50.4584 81.1812 50.4009 81.1199 50.3676 81.0442C50.3343 80.967 50.3176 80.8058 50.3176 80.5606V79.1732H50.0179V78.8554H50.3176V78.2582L50.7241 78.013V78.8554H51.135V79.1732H50.7241V80.5833C50.7241 80.6999 50.7309 80.7748 50.7445 80.8081C50.7596 80.8414 50.7831 80.8679 50.8149 80.8876C50.8482 80.9072 50.8951 80.9171 50.9557 80.9171C51.0011 80.9171 51.0609 80.9118 51.135 80.9012Z" fill="#FDFEFF"/>
<path d="M53.1877 80.4902L53.61 80.5424C53.5434 80.7892 53.4201 80.9807 53.2399 81.1169C53.0598 81.2531 52.8297 81.3213 52.5497 81.3213C52.1969 81.3213 51.9169 81.213 51.7095 80.9966C51.5036 80.7786 51.4007 80.4736 51.4007 80.0815C51.4007 79.6758 51.5052 79.361 51.7141 79.1369C51.923 78.9129 52.1939 78.8009 52.5269 78.8009C52.8494 78.8009 53.1128 78.9106 53.3171 79.1301C53.5215 79.3496 53.6237 79.6584 53.6237 80.0565C53.6237 80.0807 53.6229 80.1171 53.6214 80.1655H51.823C51.8382 80.4304 51.9131 80.6333 52.0478 80.774C52.1826 80.9148 52.3506 80.9852 52.5519 80.9852C52.7018 80.9852 52.8297 80.9458 52.9357 80.8671C53.0416 80.7884 53.1256 80.6628 53.1877 80.4902ZM51.8458 79.8295H53.1922C53.1741 79.6266 53.1226 79.4745 53.0378 79.3731C52.9077 79.2156 52.7389 79.1369 52.5315 79.1369C52.3438 79.1369 52.1856 79.1997 52.0569 79.3254C51.9298 79.451 51.8594 79.619 51.8458 79.8295Z" fill="#FDFEFF"/>
<path d="M54.1255 81.2668V78.8554H54.491V79.1937C54.5667 79.0756 54.6674 78.981 54.793 78.9099C54.9187 78.8372 55.0617 78.8009 55.2222 78.8009C55.4008 78.8009 55.5469 78.8379 55.6604 78.9121C55.7755 78.9863 55.8564 79.09 55.9034 79.2232C56.0941 78.9416 56.3424 78.8009 56.6481 78.8009C56.8873 78.8009 57.0712 78.8675 57.1999 79.0007C57.3286 79.1324 57.3929 79.336 57.3929 79.6115V81.2668H56.9865V79.7477C56.9865 79.5842 56.9728 79.4669 56.9456 79.3958C56.9199 79.3231 56.8722 79.2648 56.8025 79.2209C56.7329 79.177 56.6512 79.1551 56.5573 79.1551C56.3878 79.1551 56.247 79.2118 56.135 79.3254C56.023 79.4374 55.9669 79.6175 55.9669 79.8658V81.2668H55.5582V79.7C55.5582 79.5184 55.5249 79.3821 55.4583 79.2913C55.3917 79.2005 55.2827 79.1551 55.1314 79.1551C55.0163 79.1551 54.9096 79.1854 54.8112 79.2459C54.7143 79.3065 54.6439 79.395 54.6 79.5116C54.5561 79.6281 54.5342 79.7962 54.5342 80.0156V81.2668H54.1255Z" fill="#FDFEFF"/>
<path d="M59.5727 80.9693C59.4213 81.098 59.2753 81.1888 59.1345 81.2418C58.9952 81.2948 58.8453 81.3213 58.6849 81.3213C58.42 81.3213 58.2164 81.2569 58.0741 81.1283C57.9318 80.9981 57.8607 80.8323 57.8607 80.631C57.8607 80.5129 57.8871 80.4054 57.9401 80.3086C57.9946 80.2102 58.065 80.1315 58.1513 80.0724C58.2391 80.0134 58.3375 79.9687 58.4465 79.9384C58.5267 79.9173 58.6478 79.8968 58.8098 79.8771C59.1398 79.8378 59.3827 79.7909 59.5386 79.7364C59.5402 79.6804 59.5409 79.6448 59.5409 79.6296C59.5409 79.4631 59.5023 79.3458 59.4251 79.2777C59.3207 79.1854 59.1655 79.1392 58.9596 79.1392C58.7674 79.1392 58.6251 79.1732 58.5328 79.2414C58.4419 79.308 58.3746 79.4268 58.3307 79.5979L57.931 79.5434C57.9674 79.3723 58.0272 79.2346 58.1104 79.1301C58.1937 79.0241 58.314 78.9432 58.4714 78.8871C58.6289 78.8296 58.8113 78.8009 59.0187 78.8009C59.2245 78.8009 59.3918 78.8251 59.5205 78.8735C59.6492 78.922 59.7438 78.9833 59.8043 79.0574C59.8649 79.1301 59.9072 79.2224 59.9315 79.3345C59.9451 79.4041 59.9519 79.5297 59.9519 79.7114V80.2563C59.9519 80.6363 59.9602 80.877 59.9769 80.9784C59.995 81.0783 60.0299 81.1744 60.0813 81.2668H59.6544C59.6121 81.182 59.5848 81.0828 59.5727 80.9693ZM59.5386 80.0565C59.3903 80.1171 59.1678 80.1685 58.8711 80.2109C58.7031 80.2351 58.5842 80.2624 58.5146 80.2927C58.445 80.3229 58.3912 80.3676 58.3534 80.4266C58.3155 80.4842 58.2966 80.5485 58.2966 80.6196C58.2966 80.7286 58.3375 80.8195 58.4192 80.8921C58.5025 80.9648 58.6236 81.0011 58.7825 81.0011C58.94 81.0011 59.08 80.967 59.2026 80.8989C59.3252 80.8293 59.4153 80.7347 59.4728 80.6151C59.5167 80.5228 59.5386 80.3865 59.5386 80.2064V80.0565Z" fill="#FDFEFF"/>
<path d="M60.4242 80.547L60.8284 80.4834C60.8511 80.6454 60.9139 80.7695 61.0168 80.8558C61.1213 80.9421 61.2666 80.9852 61.4528 80.9852C61.6405 80.9852 61.7798 80.9474 61.8706 80.8717C61.9614 80.7945 62.0068 80.7044 62.0068 80.6015C62.0068 80.5091 61.9667 80.4365 61.8865 80.3835C61.8305 80.3472 61.6912 80.301 61.4687 80.245C61.169 80.1693 60.9608 80.1042 60.8443 80.0497C60.7292 79.9937 60.6414 79.9173 60.5809 79.8204C60.5218 79.722 60.4923 79.6137 60.4923 79.4957C60.4923 79.3882 60.5165 79.289 60.565 79.1982C60.6149 79.1059 60.6823 79.0294 60.7671 78.9689C60.8306 78.922 60.9169 78.8826 61.0259 78.8508C61.1364 78.8175 61.2545 78.8009 61.3801 78.8009C61.5693 78.8009 61.7351 78.8281 61.8774 78.8826C62.0212 78.9371 62.1272 79.0113 62.1953 79.1051C62.2634 79.1975 62.3103 79.3216 62.3361 79.4775L61.9364 79.532C61.9183 79.4079 61.8653 79.311 61.7775 79.2414C61.6912 79.1717 61.5686 79.1369 61.4096 79.1369C61.2219 79.1369 61.088 79.1679 61.0077 79.23C60.9275 79.2921 60.8874 79.3647 60.8874 79.448C60.8874 79.501 60.904 79.5487 60.9374 79.591C60.9707 79.6349 61.0229 79.6713 61.094 79.7C61.1349 79.7152 61.2552 79.75 61.4551 79.8045C61.7442 79.8817 61.9455 79.9453 62.059 79.9952C62.1741 80.0437 62.2642 80.1148 62.3292 80.2087C62.3943 80.3025 62.4269 80.4191 62.4269 80.5583C62.4269 80.6946 62.3868 80.8232 62.3065 80.9443C62.2278 81.0639 62.1135 81.157 61.9637 81.2236C61.8138 81.2887 61.6443 81.3213 61.4551 81.3213C61.1417 81.3213 60.9025 81.2562 60.7375 81.126C60.5741 80.9958 60.4696 80.8028 60.4242 80.547Z" fill="#FDFEFF"/>
<path d="M62.8379 81.4666L63.2352 81.5256C63.2519 81.6482 63.298 81.7375 63.3737 81.7936C63.4752 81.8692 63.6137 81.9071 63.7893 81.9071C63.9785 81.9071 64.1246 81.8692 64.2275 81.7936C64.3304 81.7179 64.4001 81.6119 64.4364 81.4757C64.4576 81.3924 64.4674 81.2176 64.4659 80.9511C64.2873 81.1616 64.0648 81.2668 63.7983 81.2668C63.4668 81.2668 63.2103 81.1472 63.0286 80.908C62.8469 80.6688 62.7561 80.382 62.7561 80.0474C62.7561 79.8173 62.7978 79.6054 62.881 79.4117C62.9643 79.2164 63.0846 79.0658 63.242 78.9598C63.401 78.8538 63.5872 78.8009 63.8006 78.8009C64.0852 78.8009 64.3198 78.9159 64.5045 79.146V78.8554H64.8814V80.9398C64.8814 81.3152 64.8428 81.5809 64.7656 81.7368C64.6899 81.8942 64.5688 82.0183 64.4023 82.1092C64.2373 82.2 64.0337 82.2454 63.7915 82.2454C63.5039 82.2454 63.2716 82.1803 63.0944 82.0501C62.9173 81.9215 62.8318 81.7269 62.8379 81.4666ZM63.1762 80.0179C63.1762 80.3343 63.239 80.5651 63.3647 80.7105C63.4903 80.8558 63.6477 80.9284 63.8369 80.9284C64.0246 80.9284 64.1821 80.8565 64.3092 80.7127C64.4364 80.5674 64.5 80.3403 64.5 80.0315C64.5 79.7364 64.4341 79.5138 64.3024 79.364C64.1722 79.2141 64.0148 79.1392 63.8301 79.1392C63.6485 79.1392 63.4941 79.2134 63.3669 79.3617C63.2398 79.5085 63.1762 79.7273 63.1762 80.0179Z" fill="#FDFEFF"/>
<path d="M65.4832 82.1955L65.4377 81.8117C65.527 81.8359 65.605 81.848 65.6716 81.848C65.7624 81.848 65.8351 81.8329 65.8896 81.8026C65.9441 81.7724 65.9887 81.73 66.0236 81.6755C66.0493 81.6346 66.0909 81.5332 66.1484 81.3712C66.156 81.3485 66.1681 81.3152 66.1848 81.2713L65.2697 78.8554H65.7102L66.212 80.2518C66.2771 80.4289 66.3354 80.6151 66.3869 80.8104C66.4338 80.6227 66.4898 80.4395 66.5549 80.2609L67.0703 78.8554H67.479L66.5617 81.3076C66.4633 81.5725 66.3869 81.7549 66.3324 81.8549C66.2597 81.9896 66.1764 82.088 66.0826 82.15C65.9887 82.2136 65.8767 82.2454 65.7465 82.2454C65.6678 82.2454 65.58 82.2288 65.4832 82.1955Z" fill="#FDFEFF"/>
<path d="M67.7515 81.4666L68.1489 81.5256C68.1655 81.6482 68.2117 81.7375 68.2874 81.7936C68.3888 81.8692 68.5273 81.9071 68.7029 81.9071C68.8921 81.9071 69.0382 81.8692 69.1411 81.7936C69.2441 81.7179 69.3137 81.6119 69.35 81.4757C69.3712 81.3924 69.3811 81.2176 69.3795 80.9511C69.2009 81.1616 68.9784 81.2668 68.712 81.2668C68.3805 81.2668 68.1239 81.1472 67.9422 80.908C67.7606 80.6688 67.6698 80.382 67.6698 80.0474C67.6698 79.8173 67.7114 79.6054 67.7946 79.4117C67.8779 79.2164 67.9982 79.0658 68.1557 78.9598C68.3146 78.8538 68.5008 78.8009 68.7143 78.8009C68.9988 78.8009 69.2335 78.9159 69.4181 79.146V78.8554H69.7951V80.9398C69.7951 81.3152 69.7565 81.5809 69.6793 81.7368C69.6036 81.8942 69.4825 82.0183 69.316 82.1092C69.151 82.2 68.9474 82.2454 68.7052 82.2454C68.4176 82.2454 68.1852 82.1803 68.0081 82.0501C67.831 81.9215 67.7455 81.7269 67.7515 81.4666ZM68.0898 80.0179C68.0898 80.3343 68.1526 80.5651 68.2783 80.7105C68.4039 80.8558 68.5614 80.9284 68.7506 80.9284C68.9383 80.9284 69.0957 80.8565 69.2229 80.7127C69.35 80.5674 69.4136 80.3403 69.4136 80.0315C69.4136 79.7364 69.3478 79.5138 69.2161 79.364C69.0859 79.2141 68.9284 79.1392 68.7438 79.1392C68.5621 79.1392 68.4077 79.2134 68.2806 79.3617C68.1534 79.5085 68.0898 79.7273 68.0898 80.0179Z" fill="#FDFEFF"/>
<path d="M70.5308 81.2668V80.8013H70.9962V81.2668H70.5308Z" fill="#FDFEFF"/>
<path d="M73.2828 80.3835L73.6847 80.4357C73.6408 80.7127 73.528 80.93 73.3463 81.0874C73.1662 81.2433 72.9444 81.3213 72.681 81.3213C72.351 81.3213 72.0854 81.2138 71.884 80.9988C71.6842 80.7824 71.5843 80.4728 71.5843 80.0701C71.5843 79.8098 71.6275 79.582 71.7138 79.3867C71.8 79.1914 71.931 79.0453 72.1066 78.9485C72.2837 78.8501 72.4759 78.8009 72.6833 78.8009C72.9452 78.8009 73.1594 78.8675 73.3259 79.0007C73.4924 79.1324 73.5991 79.3201 73.6461 79.5638L73.2487 79.6251C73.2109 79.4631 73.1435 79.3413 73.0466 79.2595C72.9512 79.1778 72.8354 79.1369 72.6992 79.1369C72.4933 79.1369 72.3261 79.2111 72.1974 79.3594C72.0687 79.5063 72.0044 79.7394 72.0044 80.0588C72.0044 80.3827 72.0665 80.6181 72.1906 80.765C72.3147 80.9118 72.4767 80.9852 72.6765 80.9852C72.837 80.9852 72.9709 80.936 73.0784 80.8376C73.1859 80.7392 73.254 80.5878 73.2828 80.3835Z" fill="#FDFEFF"/>
<path d="M73.8822 80.0611C73.8822 79.6145 74.0063 79.2837 74.2546 79.0688C74.462 78.8902 74.7148 78.8009 75.013 78.8009C75.3445 78.8009 75.6154 78.9099 75.8259 79.1278C76.0363 79.3443 76.1415 79.644 76.1415 80.027C76.1415 80.3373 76.0946 80.5818 76.0007 80.7604C75.9084 80.9375 75.7729 81.0753 75.5943 81.1737C75.4171 81.2721 75.2234 81.3213 75.013 81.3213C74.6754 81.3213 74.4022 81.213 74.1933 80.9966C73.9859 80.7801 73.8822 80.4683 73.8822 80.0611ZM74.3023 80.0611C74.3023 80.3699 74.3696 80.6015 74.5044 80.7559C74.6391 80.9088 74.8086 80.9852 75.013 80.9852C75.2158 80.9852 75.3846 80.908 75.5193 80.7536C75.654 80.5992 75.7214 80.3638 75.7214 80.0474C75.7214 79.7492 75.6533 79.5237 75.5171 79.3708C75.3823 79.2164 75.2143 79.1392 75.013 79.1392C74.8086 79.1392 74.6391 79.2156 74.5044 79.3685C74.3696 79.5214 74.3023 79.7523 74.3023 80.0611Z" fill="#FDFEFF"/>
<path d="M76.6228 81.2668V78.8554H76.9884V79.1937C77.0641 79.0756 77.1648 78.981 77.2904 78.9099C77.4161 78.8372 77.5591 78.8009 77.7196 78.8009C77.8982 78.8009 78.0443 78.8379 78.1578 78.9121C78.2728 78.9863 78.3538 79.09 78.4008 79.2232C78.5915 78.9416 78.8397 78.8009 79.1455 78.8009C79.3847 78.8009 79.5686 78.8675 79.6973 79.0007C79.826 79.1324 79.8903 79.336 79.8903 79.6115V81.2668H79.4838V79.7477C79.4838 79.5842 79.4702 79.4669 79.443 79.3958C79.4172 79.3231 79.3696 79.2648 79.2999 79.2209C79.2303 79.177 79.1485 79.1551 79.0547 79.1551C78.8852 79.1551 78.7444 79.2118 78.6324 79.3254C78.5203 79.4374 78.4643 79.6175 78.4643 79.8658V81.2668H78.0556V79.7C78.0556 79.5184 78.0223 79.3821 77.9557 79.2913C77.8891 79.2005 77.7801 79.1551 77.6287 79.1551C77.5137 79.1551 77.407 79.1854 77.3086 79.2459C77.2117 79.3065 77.1413 79.395 77.0974 79.5116C77.0535 79.6281 77.0316 79.7962 77.0316 80.0156V81.2668H76.6228Z" fill="#FDFEFF"/>
<path d="M80.6123 81.2668V80.8013H81.0778V81.2668H80.6123Z" fill="#FDFEFF"/>
<path d="M83.3643 80.3835L83.7662 80.4357C83.7223 80.7127 83.6096 80.93 83.4279 81.0874C83.2478 81.2433 83.026 81.3213 82.7626 81.3213C82.4326 81.3213 82.167 81.2138 81.9656 80.9988C81.7658 80.7824 81.6659 80.4728 81.6659 80.0701C81.6659 79.8098 81.7091 79.582 81.7953 79.3867C81.8816 79.1914 82.0126 79.0453 82.1882 78.9485C82.3653 78.8501 82.5575 78.8009 82.7649 78.8009C83.0268 78.8009 83.241 78.8675 83.4075 79.0007C83.574 79.1324 83.6807 79.3201 83.7276 79.5638L83.3303 79.6251C83.2924 79.4631 83.2251 79.3413 83.1282 79.2595C83.0328 79.1778 82.917 79.1369 82.7808 79.1369C82.5749 79.1369 82.4077 79.2111 82.279 79.3594C82.1503 79.5063 82.086 79.7394 82.086 80.0588C82.086 80.3827 82.148 80.6181 82.2722 80.765C82.3963 80.9118 82.5583 80.9852 82.7581 80.9852C82.9185 80.9852 83.0525 80.936 83.16 80.8376C83.2675 80.7392 83.3356 80.5878 83.3643 80.3835Z" fill="#FDFEFF"/>
<path d="M83.9638 80.0611C83.9638 79.6145 84.0879 79.2837 84.3362 79.0688C84.5436 78.8902 84.7964 78.8009 85.0946 78.8009C85.4261 78.8009 85.697 78.9099 85.9074 79.1278C86.1179 79.3443 86.2231 79.644 86.2231 80.027C86.2231 80.3373 86.1761 80.5818 86.0823 80.7604C85.9899 80.9375 85.8545 81.0753 85.6758 81.1737C85.4987 81.2721 85.305 81.3213 85.0946 81.3213C84.757 81.3213 84.4838 81.213 84.2749 80.9966C84.0675 80.7801 83.9638 80.4683 83.9638 80.0611ZM84.3839 80.0611C84.3839 80.3699 84.4512 80.6015 84.5859 80.7559C84.7207 80.9088 84.8902 80.9852 85.0946 80.9852C85.2974 80.9852 85.4662 80.908 85.6009 80.7536C85.7356 80.5992 85.803 80.3638 85.803 80.0474C85.803 79.7492 85.7349 79.5237 85.5986 79.3708C85.4639 79.2164 85.2959 79.1392 85.0946 79.1392C84.8902 79.1392 84.7207 79.2156 84.5859 79.3685C84.4512 79.5214 84.3839 79.7523 84.3839 80.0611Z" fill="#FDFEFF"/>
<defs>
<linearGradient id="paint0_linear_871_1590" x1="140.961" y1="-38.7676" x2="-8.13763" y2="88.2423" gradientUnits="userSpaceOnUse">
<stop offset="0.311689" stop-color="#2280A0"/>
<stop offset="0.507656" stop-color="#CFD4D9"/>
<stop offset="0.757552" stop-color="#2280A0"/>
</linearGradient>
<linearGradient id="paint1_linear_871_1590" x1="1.16212" y1="50.7495" x2="55.5119" y2="12.6756" gradientUnits="userSpaceOnUse">
<stop offset="0.524254" stop-color="#CFD4D9" stop-opacity="0.24"/>
<stop offset="0.676114" stop-color="#AEC0CE"/>
<stop offset="0.780859" stop-color="#2280A0"/>
</linearGradient>
<linearGradient id="paint2_linear_871_1590" x1="-9.27408" y1="-0.438966" x2="67.9833" y2="64.1545" gradientUnits="userSpaceOnUse">
<stop offset="0.353523" stop-color="#CFD4D9" stop-opacity="0"/>
<stop offset="0.377037" stop-color="#68A2B7" stop-opacity="0.440487"/>
<stop offset="0.393026" stop-color="#2280A0" stop-opacity="0.74"/>
<stop offset="0.416775" stop-color="#2280A0" stop-opacity="0.909708"/>
<stop offset="0.456833" stop-color="#2280A0"/>
<stop offset="0.511877" stop-color="#2280A0"/>
<stop offset="0.564214" stop-color="#2280A0"/>
<stop offset="0.595456" stop-color="#2280A0" stop-opacity="0.547522"/>
<stop offset="0.614173" stop-color="#2280A0" stop-opacity="0.305732"/>
<stop offset="0.624193" stop-color="#2280A0" stop-opacity="0"/>
<stop offset="0.656177" stop-color="#C9D1D7" stop-opacity="0"/>
<stop offset="0.67329" stop-color="#CFD4D9" stop-opacity="0"/>
</linearGradient>
<linearGradient id="paint3_linear_871_1590" x1="33.7146" y1="12.0945" x2="34.8771" y2="54.528" gradientUnits="userSpaceOnUse">
<stop offset="0.365784" stop-color="#0C2E3A"/>
<stop offset="0.474828" stop-color="#217C9C" stop-opacity="0.961234"/>
<stop offset="0.576265" stop-color="#0C2E3A" stop-opacity="0"/>
</linearGradient>
<linearGradient id="paint4_linear_871_1590" x1="66.283" y1="41.423" x2="119.728" y2="26.3612" gradientUnits="userSpaceOnUse">
<stop offset="0.224738" stop-color="#2280A0" stop-opacity="0"/>
<stop offset="0.342752" stop-color="#2280A0" stop-opacity="0.9"/>
<stop offset="0.465272" stop-color="#2280A0"/>
<stop offset="0.592416" stop-color="#2280A0" stop-opacity="0.8"/>
<stop offset="0.705737" stop-color="#2280A0" stop-opacity="0"/>
</linearGradient>
<linearGradient id="paint5_linear_871_1590" x1="94.4786" y1="35.0552" x2="74.9855" y2="8.02566" gradientUnits="userSpaceOnUse">
<stop stop-color="#2280A0" stop-opacity="0"/>
<stop offset="0.501828" stop-color="#2280A0"/>
<stop offset="0.947445" stop-color="#0C2E3A"/>
</linearGradient>
<linearGradient id="paint6_linear_871_1590" x1="84.5763" y1="46.9714" x2="84.2857" y2="12.3852" gradientUnits="userSpaceOnUse">
<stop offset="0.168123" stop-color="#2280A0" stop-opacity="0"/>
<stop offset="0.320706" stop-color="#2280A0" stop-opacity="0.141785"/>
<stop offset="0.393111" stop-color="#2280A0"/>
<stop offset="0.528724" stop-color="#0C2E3A"/>
</linearGradient>
<linearGradient id="paint7_linear_871_1590" x1="31.0318" y1="25.4639" x2="31.0318" y2="32.7299" gradientUnits="userSpaceOnUse">
<stop stop-color="#979BAC" stop-opacity="0.14"/>
<stop offset="1" stop-color="#3D3F46"/>
</linearGradient>
<linearGradient id="paint8_linear_871_1590" x1="90.7527" y1="30.1064" x2="84.5766" y2="29.8229" gradientUnits="userSpaceOnUse">
<stop stop-color="#CECECF" stop-opacity="0.52"/>
<stop offset="1" stop-color="#686869"/>
</linearGradient>
</defs>
</svg>
